<?xml version="1.0" encoding="UTF-8"?>
<svg id="Vrstva_1" data-name="Vrstva 1" xmlns="http://www.w3.org/2000/svg" width="1500.07" height="750" viewBox="0 0 1500.07 750">
  <defs>
    <style>
      .cls-1 {
        fill: #fff;
      }

      .cls-2 {
        fill-rule: evenodd;
      }

      .cls-2, .cls-3 {
        fill: #004b93;
      }
    </style>
  </defs>
  <rect class="cls-1" width="1500.07" height="750"/>
  <g>
    <polygon class="cls-2" points="1296 422.91 1282.5 469.88 1029.45 469.88 1082.76 284.85 1181.41 284.85 1141.74 422.91 1296 422.91"/>
    <path class="cls-2" d="M570.72,366.63h-71.26l13.5-46.7h70.72c12.96,0,24.97,10.53,21.05,23.48-3.24,12.01-13.23,21.59-34.01,23.21M615.26,284.85h-191.1l-52.9,185.03h98.66l19.3-68.02h94.47c53.85,0,102.84-23.75,112.29-56.28,7.83-26.45-15.66-60.73-80.57-60.73"/>
    <path class="cls-2" d="M899.89,366.63h-71.26l13.5-46.7h70.99c12.96,0,24.7,10.53,21.05,23.48-3.64,12.01-13.5,21.59-34.28,23.21M944.29,284.85h-190.97l-52.9,185.03h98.66l19.57-68.02h94.47c53.58,0,102.84-23.75,112.15-56.28,7.56-26.45-15.93-60.73-80.98-60.73"/>
    <polygon class="cls-2" points="321.05 469.88 335.76 418.73 113.75 418.73 98.9 469.88 321.05 469.88"/>
    <polygon class="cls-2" points="356.54 346.52 365.85 314.27 143.44 314.27 134.53 346.52 356.54 346.52"/>
    <polygon class="cls-2" points="339.94 403.61 352.22 361.23 130.21 361.23 117.93 403.61 339.94 403.61"/>
    <polygon class="cls-2" points="370.04 299.56 374.22 284.85 152.21 284.85 148.03 299.56 370.04 299.56"/>
    <path class="cls-3" d="M1388.71,292.27c-7.56-7.56-18.08-12.15-29.42-12.15h0c-11.61,0-22.13,4.59-29.56,12.15-7.56,7.56-12.15,17.95-12.15,29.56h3.51c0-10.66,4.18-20.24,11.2-27.13,6.88-6.88,16.47-11.2,27.13-11.2h0c10.53,0,20.11,4.18,26.99,11.2,6.88,6.88,11.2,16.47,11.2,27.13h3.51c0-11.61-4.72-22.13-12.28-29.56h-.13Z"/>
    <path class="cls-3" d="M1386.28,348.68c-6.88,6.88-16.47,11.07-26.99,11.07h0c-10.66,0-20.24-4.18-27.13-11.07-6.88-6.88-11.07-16.33-11.07-26.86h-3.51c0,11.47,4.59,21.86,12.15,29.29,7.56,7.56,17.95,12.15,29.56,12.15h0c11.47,0,21.86-4.59,29.56-12.15,7.56-7.56,12.28-17.81,12.28-29.29h-3.51c0,10.53-4.32,19.97-11.2,26.86h-.13Z"/>
    <path class="cls-2" d="M1347.82,318.18h15.66c5.13,0,10.53-1.21,12.96-8.1,2.43-7.15-3.37-7.83-6.61-7.83h-16.87l-5.13,15.93h0ZM1339.32,343.55h-6.61l14.98-46.7h23.21c8.37,0,15.93,2.7,12.69,12.69-2.16,6.88-6.88,9.31-10.53,11.07,2.43,1.21,4.86,2.43,2.97,8.77l-2.16,8.37c-.94,2.7-.94,3.64.94,4.86l-.27.94h-8.37c0-2.97,2.16-9.99,2.7-11.74,1.21-3.64,1.75-8.1-6.34-8.1h-16.6l-6.61,19.84h0Z"/>
  </g>
</svg>