<svg version="1.2" xmlns="http://www.w3.org/2000/svg" viewBox="0 0 1320 1320" width="1320" height="1320"><style>.a{fill:#ba1b02}.b{fill:#fff}.c{fill:#aaa9a6}.d{fill:#d8d7d4}</style><path class="a" d="m0 0h1320v1320h-1320z"/><path class="b" d="m667.2 499.2l-7.2 3.5-7.2-3.5-100.6-49.8 47.7-18.3 103.2 50.2zm100.8-49.8l-36.1 17.5-104.4-46.5 32.5-12.6z"/><path class="b" d="m663.9 375.6l132.1 51.1-18.6 15-117.4-45.6-117.4 45.6-18.6-15 132.2-51.1h7.7zm116.6 70.4l21.8-8.4-16.4 135.8-3.3 6-115.9 104.5-3.7-24.1 103.2-93zm-243.1 133.4l-3.3-6-16.4-135.8 21.8 8.5 14.4 120.9 103.2 92.9-3.7 24z"/><path class="c" d="m734.8 471.2l33.3-20.4-13.1 109.3-94.3 85 5.2-131.7 41.3-25.4-2.7 64.5 25.8-18.1z"/><path class="d" d="m654.1 513.4l5.2 131.6-94.2-84.9-13.2-109.3z"/><path fill-rule="evenodd" class="b" d="m971.9 875.5v-13.6c0-11.5-11.7-17.4-24.4-17.2-9.2 0-18.7 3.2-24.6 9.8l-14-14.5c12.6-14.1 26.9-17.5 41.8-17.5 22.8 0 46.1 12.2 46.1 38.8v75.2c-10.9 4.1-27.1 7.9-44.3 7.9-24.4 0-47.7-7.9-47.7-35.8 0-25.8 21.7-37.6 43.4-37.6 8.4 0 16.9 1.6 23.7 4.5zm0 19.5c-4.9-2.2-12.6-4.1-20.1-4.1-14.5 0-22.6 7.3-22.6 17.5 0 11.1 10.4 15.2 21.7 15.2 8.1 0 15.6-1.2 21-2.5zm-70.5 48.7c-3.2 0.4-6.3 0.7-9.3 0.7-23 0-41.3-12.3-41.3-41.9v-105.4h22.4l2.2 27.6h22.4v22.7h-22.4v54.8c0 18.6 12.4 19.7 26 19.7zm-66.7-23.3c-9 16.1-26.6 24-42 24-23.1 0-46.4-13.3-46.4-40.3v-41.3c0-27.4 23.3-40.3 46.4-40.3 22.4 0 45.6 12.9 45.6 40.3v32.2h-66.9v8.2c0 10.6 10.2 17 20.8 17 8.6 0 17.4-3 21.7-11.8zm-20.3-57.1c0-10.9-10.6-16.5-21.5-16.5-11.1 0-21.9 5.4-21.5 16.9v10.7h43zm-95.6-38.5h31.2l-48.9 54.1 48.6 63.2h-29.1l-36.9-48-7 7v41h-24.8v-160.4h24.8v90.4zm-169.3 79.3v-41.2c0-27.2 23.3-40.3 46.1-40.3 18.4 0 39.2 8.4 45.5 30.8l-22.6 8.6c-3-10.4-12.2-15.2-21.7-15.2-10.6 0-22.4 5.7-22.4 15.9v41.7c0 10.2 10.4 15.8 21.2 15.8 9.8 0 19.9-4.7 22.9-15.2l23 8.7c-6.3 22.4-27.5 30.8-45.9 30.8-22.8 0-46.1-13.2-46.1-40.4zm-38.4-28.5v-13.6c0-11.6-11.7-17.5-24.4-17.2-9.3 0-18.8 3.1-24.6 9.7l-14.1-14.5c12.7-14 26.9-17.4 41.9-17.4 22.8 0 46.1 12.2 46.1 38.7v75.2c-10.9 4.1-27.1 8-44.3 8-24.4 0-47.7-8-47.7-35.8 0-25.9 21.7-37.6 43.4-37.6 8.3 0 16.9 1.5 23.7 4.5zm0 45.5v-26c-5-2.3-12.6-4.1-20.1-4.1-14.5 0-22.6 7.2-22.6 17.4 0 11.2 10.4 15.2 21.7 15.2 8.1 0 15.6-1.1 21-2.5zm-187.8-139.3h61.9c36.8 0 55.4 26.7 55.4 52.8 0 26.7-18.6 52.1-55.2 52.1h-36.4v55.5h-25.7zm61.9 80.9c19.7 0 29.4-14.3 29.4-27.6 0-13.4-10-27-29.4-27h-36.2v54.6z"/></svg>