<svg version="1.2" xmlns="http://www.w3.org/2000/svg" viewBox="0 0 2248 625" width="2248" height="625"><style>.a{fill:#ba1b02}</style><path fill-rule="evenodd" class="a" d="m2191.9 341.7v-0.3q0.4 0.2 0.7 0.3zm0-0.3v-29.3c0-25.6-26.2-39.1-54.5-38.4-20.9 0-42.4 6.7-55.2 21.5l-30.9-32.3c28.2-31.6 59.9-39 93.5-39 51.1 0 102.9 26.9 102.9 86.2v167c-24.2 8.8-60.5 17.5-98.9 17.5-54.5 0-106.3-17.5-106.3-79.5 0-57.2 48.5-83.5 96.9-83.5 18.6 0 37.8 3.3 52.5 9.8zm0.7 43.4c-11.5-4.7-28.3-8.7-45.1-8.7-32.3 0-50.5 16.1-50.5 39 0 25 23.6 33.7 48.5 33.7 18.1 0 35-2.7 47.1-5.4zm-157.5 109.8c-7.4 0.7-14.1 1.4-20.8 1.4-51.2 0-92.2-27.7-92.2-93.7v-235h49.8l5.4 61.3h49.8v50.5h-49.8v122.6c0 41.1 27.6 43.7 57.8 43.7zm-148.6-53.2c-20.2 35.7-59.2 53.2-93.6 53.2-51.8 0-103.6-29.6-103.6-89.5v-91.6c0-60.7 52.5-89.6 103.6-89.6 49.8 0 101.6 28.3 101.6 89.6v72h-149.3v18.2c0 23.6 22.8 37.7 46.4 37.7 18.8 0 39-6.7 48.4-26.2zm-45.7-102.4v-24.3c0-24.2-23.6-37-47.8-37-24.9 0-48.4 12.1-47.7 37.7v23.6zm-213.3-109.8h70l-109 120.6 108.3 140.7h-65.3l-82-107.1-15.5 15.5v91h-55.2v-357.7h55.2v202.1zm-378.1 84.8c0-61.3 51.8-90.2 102.9-90.2 41.1 0 87.5 18.8 101.6 68.7l-50.5 18.8c-6.7-22.9-26.9-33.6-48.4-33.6-23.5 0-49.8 12.1-49.8 35v92.9c0 22.3 23.6 35.1 47.8 35.1 21.5 0 44.4-10.8 51.1-33.7l51.2 18.8c-14.2 49.9-61.3 68.8-102.3 68.8-51.1 0-102.9-29-102.9-89.6zm-86.2-2.1c0-25.5-26.2-39-54.5-38.3-20.8 0-42.3 6.7-55.1 21.5l-31-32.3c28.3-31.7 60.6-39.1 93.5-39.1 51.2 0 103 27 103 86.2v167.1c-24.2 8.7-60.6 17.5-98.9 17.5-54.5 0-106.3-17.5-106.3-79.5 0-57.3 48.4-83.5 96.9-83.5 18.8 0 38.3 3.3 53.1 10.1zm0.7 72.7c-11.5-4.7-28.3-8.7-45.1-8.7-32.3 0-50.4 16.1-50.4 39 0 25 22.8 33.7 48.4 33.7 18.2 0 35-2.7 47.1-5.4zm-419.1-251.9h137.9c82.7 0 123.8 60 123.8 117.9 0 59.3-41.8 115.8-123.2 115.8h-81.4v123.3h-57.1zm57.1 179.2h80.8c44.4 0 65.9-31.7 65.9-61.3 0-29.7-22.9-60-65.9-60h-80.8z"/><path class="a" d="m303.7 251l-14.6 6.9-14.7-6.9-204.3-101 96.9-37 209.6 101.8zm204.7-101l-73.2 35.5-212.1-94.3 66-25.5z"/><path class="a" d="m297 0.5l268.2 103.7-37.7 30.2-238.4-92.4-238.5 92.4-37.6-30.2 268.4-103.7zm236.8 142.8l44.3-17.1-33.3 275-6.7 12.2-235.3 211.6-7.7-48.7 209.6-188.3zm-493.7 270.1l-6.7-12.2-33.3-275 44.4 17.1 29.2 244.9 209.4 188.4-7.4 48.4z"/><path class="a" d="m440.9 194.1l67.7-41.2-26.7 221.4-191.4 172.2 10.5-266.7 84-51.6-5.5 130.7 52.3-36.7z"/><path class="a" d="m277.1 279.8l10.5 266.5-191.2-172-26.8-221.4z"/></svg>