<svg width="38" height="38" viewBox="0 0 38 38" fill="none" xmlns="http://www.w3.org/2000/svg">
<circle cx="19" cy="19" r="19" fill="black"/>
<path d="M20.7691 8C21.7276 8 22.5643 8.38016 23.1509 9.06445C23.7285 9.7384 24.0191 10.6531 24.0191 11.667V13.5684C25.1987 13.7192 26.0438 14.1242 26.6167 14.8047C27.3203 15.6406 27.472 16.7502 27.5835 17.6904L28.4839 25.1904V25.1924C28.6371 26.492 28.538 27.8425 27.7808 28.8799C26.9971 29.9532 25.6558 30.5 23.7691 30.5H14.7788C12.8882 30.4999 11.5433 29.9539 10.7593 28.8799C10.0015 27.8416 9.9066 26.4903 10.065 25.1904L10.9644 17.6914C11.0711 16.7506 11.2201 15.641 11.9224 14.8047C12.4944 14.1238 13.3398 13.7191 14.5191 13.5684V11.667C14.5191 10.6532 14.8097 9.73839 15.3872 9.06445C15.9738 8.38015 16.8105 8.00004 17.7691 8H20.7691ZM16.0191 15.75C16.0191 16.1642 15.6833 16.5 15.2691 16.5C14.8549 16.4999 14.5191 16.1642 14.5191 15.75V15.083C13.7181 15.2148 13.3085 15.4867 13.0708 15.7695C12.6993 16.212 12.5678 16.8662 12.4546 17.8643L12.4536 17.8691L11.5542 25.3691L11.5533 25.3711C11.4119 26.5305 11.547 27.4138 11.9712 27.9951C12.3696 28.5409 13.16 28.9999 14.7788 29H23.7691C25.3821 29 26.171 28.5415 26.5699 27.9951C26.9948 27.4128 27.1312 26.5286 26.9947 25.3691L26.0943 17.8691V17.8682C25.9758 16.8689 25.8426 16.2141 25.4693 15.7705C25.2306 15.487 24.8205 15.2149 24.0191 15.083V15.75C24.0191 16.1642 23.6833 16.5 23.2691 16.5C22.8549 16.4999 22.5191 16.1642 22.5191 15.75V15H16.0191V15.75ZM17.7691 9.5C17.2278 9.50004 16.8143 9.7036 16.5259 10.04C16.2286 10.3869 16.0191 10.931 16.0191 11.667V13.5H22.5191V11.667C22.5191 10.9309 22.3095 10.3869 22.0122 10.04C21.7238 9.70361 21.3104 9.5 20.7691 9.5H17.7691Z" fill="white"/>
</svg>
