<svg width="830" height="107" viewBox="0 0 830 107" fill="none" xmlns="http://www.w3.org/2000/svg">
<g clip-path="url(#clip0_10_2)">
<path d="M538.08 21.0023C538.08 27.1747 538.08 33.3471 538.08 39.5195C538.08 49.3042 538.08 59.0833 538.08 68.868C538.08 73.5381 539.412 77.0097 542.135 80.8246C551.482 93.9065 573.006 93.3944 581.111 79.3447C584.523 73.4312 584.393 66.516 584.393 59.916V38.6924C584.393 37.6571 584.393 21.0023 584.393 21.0023H600.207V63.8434C600.207 68.7442 600.252 73.3243 598.659 78C597.338 81.888 595.643 85.8491 593.322 89.2532C577.276 112.812 541.954 111.4 527.456 87.0026C525.191 83.1934 523.48 79.0465 522.717 74.669C521.881 69.8695 522.26 64.8562 522.26 60.006V32.2555C522.26 31.6366 522.26 20.9966 522.26 20.9966H538.074L538.08 21.0023Z" fill="black"/>
<path d="M811.965 28.9246C812.813 30.1118 805.544 40.054 804.38 41.8095C795.039 35.7609 781.726 32.565 770.769 35.3445C765.279 36.7343 760.58 40.5717 764.082 46.519C767.798 52.8321 791.418 57.6935 799.229 61.5815C822.442 73.1498 817.574 98.6778 793.372 104.563C777.281 108.474 759.835 105.013 745.399 97.4794C746.088 96.2753 751.815 86.3161 753.04 84.6282C763.997 89.9453 776.491 93.9346 788.758 90.9637C799.263 88.4205 801.127 79.7893 791.486 74.3596C778.705 67.1687 753.543 66.6511 747.912 50.2495C742.914 35.6878 753.125 24.9972 766.708 21.7337C782.229 18.0033 798.184 21.5312 811.965 28.9246Z" fill="black"/>
<path d="M648.497 21.0023L672.506 57.0127L697.634 21.0023H715.425L680.973 72.4859V105.964H664.594V71.9232L630.706 21.0023H648.497Z" fill="black"/>
<path d="M490.637 55.3247C490.637 60.9738 491.128 66.7749 489.665 72.289C488.4 77.0491 486.503 81.8599 483.955 86.0854C462.86 121.139 408.493 107.287 403.088 68.2659L418.936 66.2516C424.115 93.5126 464.555 99.5725 472.563 71.0792H450.536V55.3247H490.637Z" fill="black"/>
<path d="M373.159 105.964H312.726V21.0023H329.105V90.7724H373.171" fill="black"/>
<path d="M238.174 21.0023V90.7724H281.663V105.964H221.795V21.0023H238.174Z" fill="black"/>
<path d="M419.473 55.3247L403.094 53.074C409.736 13.6595 460.127 2.15308 484.385 33.741C484.531 34.4443 483.955 34.6806 483.577 35.0745C482.848 35.8397 471.959 43.5988 471.219 43.4694C456.263 23.5005 423.33 30.3706 419.467 55.3303L419.473 55.3247Z" fill="black"/>
<path d="M80.5959 15.3756H0.39502V31.6929H80.5959V15.3756Z" fill="black"/>
<path d="M48.9674 41.2581V105.964H32.0235V47.1661C37.3947 44.5722 43.1726 42.6929 48.9674 41.2581Z" fill="black"/>
<path d="M156.583 20.9629L136.222 21.5593L102.058 105.964H119.002L125.836 87.4527L167.512 87.464L174.352 105.964H191.296L156.583 20.9629ZM132.557 72.0414L146.4 36.588L161.356 71.7713L132.557 72.0414Z" fill="black"/>
<path d="M826.859 11.5329C826.859 6.51434 822.775 2.44577 817.738 2.44566C812.7 2.44566 808.616 6.51427 808.616 11.5329C808.616 16.5514 812.7 20.6195 817.738 20.6195C822.775 20.6194 826.859 16.5513 826.859 11.5329ZM829.118 11.5329C829.118 17.7943 824.023 22.8701 817.738 22.8702C811.453 22.8702 806.357 17.7944 806.357 11.5329C806.357 5.27126 811.452 0.195007 817.738 0.195007C824.023 0.195119 829.118 5.27133 829.118 11.5329Z" fill="black"/>
<path d="M813.711 16.4616V6.38428H818.031C819.438 6.38428 820.533 6.71062 821.313 7.35768C822.092 8.00475 822.482 8.89938 822.482 10.0416C822.482 10.7899 822.301 11.437 821.945 11.9771C821.59 12.5173 821.081 12.9337 820.426 13.2206C819.771 13.5076 818.991 13.6539 818.082 13.6539H815.004L816.043 12.6298V16.4616H813.699H813.711ZM816.054 12.8887L815.015 11.7971H817.963C818.686 11.7971 819.229 11.6395 819.584 11.3301C819.94 11.0206 820.121 10.5874 820.121 10.0416C820.121 9.4958 819.94 9.0513 819.584 8.74746C819.229 8.438 818.686 8.28608 817.963 8.28608H815.015L816.054 7.17763V12.8943V12.8887ZM820.144 16.4616L817.613 12.8043H820.115L822.674 16.4616H820.144Z" fill="black"/>
</g>
<defs>
<clipPath id="clip0_10_2">
<rect width="829" height="106" fill="white" transform="translate(0.39502 0.195007)"/>
</clipPath>
</defs>
</svg>
