<svg width="11" height="10" viewBox="0 0 11 10" fill="none" xmlns="http://www.w3.org/2000/svg">
<path d="M4.51125 0.325384C4.71146 -0.108461 5.35466 -0.108462 5.55487 0.325383L6.6022 2.59493C6.68297 2.76996 6.85358 2.89175 7.0519 2.91594L9.56711 3.22271C10.0404 3.28044 10.2349 3.83557 9.89374 4.15474L8.00044 5.92593C7.86429 6.0533 7.80351 6.23728 7.8384 6.41641L8.32978 8.93934C8.41933 9.39915 7.90278 9.74682 7.48096 9.51065L5.32109 8.30135C5.14317 8.20174 4.92294 8.20174 4.74502 8.30135L2.58515 9.51065C2.16334 9.74682 1.64679 9.39915 1.73634 8.93934L2.22772 6.41641C2.26261 6.23728 2.20182 6.0533 2.06567 5.92593L0.172381 4.15474C-0.168788 3.83557 0.0257568 3.28044 0.499003 3.22272L3.01422 2.91594C3.21254 2.89175 3.38315 2.76996 3.46392 2.59493L4.51125 0.325384Z" fill="#E7C520"/>
</svg>
