<?xml version="1.0" standalone="no"?>
<!DOCTYPE svg PUBLIC "-//W3C//DTD SVG 20010904//EN"
 "http://www.w3.org/TR/2001/REC-SVG-20010904/DTD/svg10.dtd">
<svg version="1.0" xmlns="http://www.w3.org/2000/svg"
 width="1500.000000pt" height="222.000000pt" viewBox="0 0 1500.000000 222.000000"
 preserveAspectRatio="xMidYMid meet">

<g transform="translate(0.000000,222.000000) scale(0.100000,-0.100000)"
fill="#000000" stroke="none">
<path d="M14698 2210 c-48 -14 -94 -49 -124 -92 -26 -37 -29 -50 -29 -118 0
-67 4 -82 27 -118 54 -81 165 -119 265 -91 88 24 163 120 163 209 0 142 -160
253 -302 210z m169 -53 c18 -9 45 -34 60 -54 24 -32 28 -45 28 -104 0 -60 -3
-71 -31 -105 -42 -52 -96 -78 -160 -78 -122 2 -214 113 -184 223 32 121 171
178 287 118z"/>
<path d="M14670 2000 l0 -110 25 0 c21 0 25 5 25 30 0 27 3 30 31 30 21 0 38
-9 56 -30 17 -21 34 -30 55 -30 l30 0 -26 35 -27 35 21 22 c27 30 26 73 -5
103 -22 22 -32 25 -105 25 l-80 0 0 -110z m149 46 c19 -23 -14 -48 -58 -44
-31 3 -36 7 -39 31 -3 26 -1 27 41 27 26 0 49 -6 56 -14z"/>
<path d="M300 1770 l0 -140 710 0 711 0 -3 138 -3 137 -707 3 -708 2 0 -140z"/>
<path d="M8145 1899 c-272 -26 -508 -185 -634 -429 -48 -91 -86 -219 -68 -225
7 -2 62 -11 122 -20 61 -9 117 -18 125 -20 11 -4 22 13 38 62 31 89 76 157
147 221 101 92 205 132 346 132 146 0 257 -46 366 -152 34 -34 55 -48 65 -42
39 23 208 147 208 153 0 15 -95 113 -153 157 -160 121 -367 181 -562 163z"/>
<path d="M13980 1810 c-147 -19 -274 -68 -349 -135 -21 -19 -53 -63 -72 -97
-32 -59 -34 -69 -34 -158 0 -88 3 -101 33 -162 63 -129 171 -194 505 -302 112
-37 228 -81 257 -99 92 -55 121 -125 84 -203 -33 -69 -133 -104 -296 -104
-158 0 -301 35 -447 109 l-36 19 -67 -106 c-78 -124 -83 -111 63 -174 340
-146 784 -119 967 60 57 56 86 112 106 205 12 59 12 77 0 128 -45 193 -158
276 -545 399 -271 86 -349 139 -349 239 0 37 5 49 36 77 52 50 125 68 264 67
135 -1 222 -21 353 -82 l88 -40 42 67 c24 37 53 84 66 104 l22 37 -68 34 c-87
44 -200 84 -284 102 -86 18 -256 26 -339 15z"/>
<path d="M2876 1800 l-170 -5 -298 -745 c-164 -410 -298 -746 -298 -748 0 -1
63 -1 141 0 l141 3 66 165 67 165 366 3 365 2 68 -170 68 -170 140 0 c78 0
138 4 136 9 -1 5 -136 342 -298 749 -191 481 -300 742 -310 744 -8 2 -91 1
-184 -2z m147 -578 c70 -174 127 -320 127 -325 0 -4 -117 -7 -261 -7 -245 0
-261 1 -255 18 60 158 251 632 256 632 3 0 63 -143 133 -318z"/>
<path d="M4224 1801 c-2 -2 -4 -341 -4 -753 l0 -748 530 0 530 0 0 130 0 130
-390 0 -390 0 0 619 0 620 -136 3 c-75 2 -138 1 -140 -1z"/>
<path d="M5973 1802 l-133 -3 0 -749 0 -750 525 0 525 0 0 130 0 130 -385 2
-386 3 1 617 c0 339 -3 618 -7 620 -5 2 -68 2 -140 0z"/>
<path d="M9562 1802 l-23 -4 3 -466 c4 -456 4 -469 27 -537 64 -193 183 -336
351 -419 340 -168 739 -39 915 295 72 137 75 166 75 674 0 248 -2 454 -4 456
-2 2 -63 3 -135 1 l-130 -3 -3 -462 -3 -462 -27 -58 c-57 -120 -179 -214 -315
-239 -212 -39 -432 115 -473 331 -6 31 -10 232 -10 472 0 392 -1 419 -17 419
-10 1 -61 2 -113 3 -52 1 -105 1 -118 -1z"/>
<path d="M11465 1802 c-2 -2 16 -31 40 -65 23 -34 160 -237 304 -451 l261
-389 0 -298 0 -299 140 0 140 0 0 301 0 301 300 445 c165 244 300 447 300 451
0 7 -285 5 -306 -2 -5 -2 -104 -144 -219 -315 -116 -171 -213 -310 -217 -309
-4 2 -103 144 -220 316 l-213 314 -153 1 c-85 1 -155 1 -157 -1z"/>
<path d="M1003 1397 l-143 -49 0 -524 0 -524 150 0 150 0 0 569 c0 314 -3 571
-7 573 -5 2 -72 -18 -150 -45z"/>
<path d="M8270 1060 l0 -130 201 0 200 0 -7 -22 c-85 -281 -394 -405 -673
-271 -124 59 -236 192 -270 321 -7 23 -17 42 -24 42 -7 0 -66 -9 -132 -20 -66
-11 -123 -20 -126 -20 -11 0 9 -76 40 -155 56 -146 171 -285 309 -376 134 -88
258 -124 432 -123 99 0 141 5 205 22 249 71 427 247 509 503 28 87 50 263 41
320 l-7 39 -349 0 -349 0 0 -130z"/>
</g>
</svg>
