<svg width="38" height="38" viewBox="0 0 38 38" fill="none" xmlns="http://www.w3.org/2000/svg">
<circle cx="19" cy="19" r="19" fill="#EAECEF"/>
<path d="M19.3398 9C22.5155 9 25.0898 11.5744 25.0898 14.75C25.0898 17.25 23.4939 19.3759 21.2656 20.168C25.4055 20.8934 28.6797 23.9091 28.6797 27.75C28.6797 28.1641 28.3438 28.4999 27.9297 28.5C27.5156 28.4998 27.1797 28.1641 27.1797 27.75C27.1797 24.4309 23.8168 21.5001 19.3398 21.5C14.8628 21.5001 11.5 24.4309 11.5 27.75C11.5 28.1641 11.1641 28.4999 10.75 28.5C10.3358 28.5 10 28.1642 10 27.75C10 23.9093 13.2735 20.8936 17.4131 20.168C15.1853 19.3757 13.5898 17.2497 13.5898 14.75C13.5898 11.5744 16.1642 9 19.3398 9ZM19.3398 10.5C16.9926 10.5 15.0898 12.4028 15.0898 14.75C15.0898 17.0972 16.9926 19 19.3398 19C21.687 19 23.5898 17.0972 23.5898 14.75C23.5898 12.4028 21.687 10.5 19.3398 10.5Z" fill="black"/>
</svg>
