<svg version="1.2" xmlns="http://www.w3.org/2000/svg" viewBox="0 0 2734 710" width="2734" height="710"><style>.a{fill:#ba1b02}</style><path class="a" d="m303.7 250.8l-14.6 6.9-14.7-6.9-204.3-101 96.9-37 209.6 101.8zm204.6-101l-73.1 35.5-212.1-94.3 66-25.4z"/><path class="a" d="m297 0.3l268.2 103.7-37.7 30.2-238.4-92.4-238.5 92.4-37.7-30.2 268.5-103.7zm236.7 142.8l44.4-17.1-33.3 275-6.7 12.2-235.4 211.6-7.6-48.7 209.6-188.3zm-493.7 270.1l-6.7-12.2-33.3-275 44.4 17.1 29.2 244.9 209.4 188.3-7.4 48.5z"/><path class="a" d="m440.9 193.9l67.6-41.2-26.6 221.4-191.4 172.2 10.6-266.7 83.9-51.6-5.5 130.7 52.3-36.7z"/><path class="a" d="m277.1 279.6l10.5 266.5-191.2-172-26.8-221.4z"/><path class="a" d="m2459.2 227.2q22.8 10.2 36.7 30 13.7 19.7 14.2 50.7v173.7h-55v-173.2q-1.3-16.5-11.9-26.1-10.4-9.7-25.9-13.2-14.9-3.6-30.4-1.5-15.5 2-26.4 8.3v205.7h-55.5v-247.8q8.6-1.2 14.5-3 8.8-2.8 27.1-8.9 17.2-5.8 45.1-6.8 1.8-0.3 3.6 0 6.8-0.3 13.9 0.2 27.1 1.8 50 11.9z"/><path class="a" d="m2296.1 234.3l-87.2 247.3h-58.8l-87.3-247.3q28.9 0 53.3-15.4l52.7 152.9 8.6 52.2h4.1l8.6-52.2 52.7-152.9q24.4 15.4 53.3 15.4z"/><path class="a" d="m1390.9 336.8q19.5 7.8 32.2 23.8 12.7 16.2 13.2 43.9-0.5 30.7-16.3 50.2-15.9 19.3-40.5 27.1-24.9 7.9-52.3 4.3-27.4-3.8-50.7-19.2-23.1-15.3-36.2-42.6l41.5-26.9q10.4 17.5 26.4 26.9 16.2 9.6 32.5 10.6 16.5 1.3 28.1-6.1 11.4-7.1 12.4-23.3-0.2-9.6-6.6-15-6.3-5.8-15.7-9.1-9.6-2.8-19-4.8-14-2.5-30.2-7.4-15.7-4.8-30.2-13.7-14.4-8.6-23.5-23.3-7.9-12.6-8.9-31.4 0-0.5 0-1-0.3-2.1-0.3-4.4 0.5-29.1 15.5-46.6 14.7-17.8 37-25.9 22.3-7.8 45.4-7.6 21.3 0 43.6 9.2 22.4 9.3 42.1 28.3l-33.4 36.6q-11.2-10.9-26.7-16.5-15.4-5.8-30.7-6.1-14.9 0-25.6 5.8-10.4 5.9-12.1 18.3-0.5 11.4 6.6 18.5 7.6 7.1 18.7 10.7 11.2 3.8 22.3 5.3 21.6 3 41.4 11.4z"/><path class="a" d="m1508.8 132.1q9.6 9.9 9.9 25.7-0.3 14.9-9.9 24.8-9.7 10.1-25.6 10.4-15-0.3-24.6-10.4-9.9-9.9-10.2-24.8 0.3-15.8 10.2-25.7 9.6-9.6 24.6-10.1 16 0.5 25.6 10.1z"/><path class="a" d="m1651 431.4c0-0.8 0-308.9 0-308.9h55.8v202.4l26.2-29 0.2-0.5 68-76.3h69.7l-109.5 121 109 141.5h-65.4l-82.7-107.6-15.5 15.8v91.8l-53.5 2c-1.5 0-1.6 0-2.9 0-1.7 0-3.6-0.2-3.6-0.2l-2.9-0.3q-53.5-3.8-75.5-23.9-26.1-23.8-26.4-65.9v-270.8h55.8v270.8q-0.3 16.5 10.9 27.1c6.1 5.8 21.6 9.6 42.3 11z"/><path class="a" d="m1512.3 481.6h-55.7v-263.2h55.7z"/><path class="a" d="m1144.9 202.6h-54.8l36.1-59.3h68.7z"/><path fill-rule="evenodd" class="a" d="m2733.8 302v168.4c-15.9 5.9-33.2 10.6-51.8 13.9q-27.6 4.9-55 3.6-27.1-1-49.7-10.7-22.6-9.6-35.7-29.9-13.7-20.3-14.2-53.5 0.7-30.9 15.7-49.9 15-19.3 38.3-27.7 23.3-8.6 48.7-7.3 25.8 1.3 48.2 10.6v-16q-3.9-17.9-16.8-27.8-12.7-9.9-29.9-11.5-17.3-1.7-34.7 3.8-17 5.9-29.5 18.6l-32.4-29.7q21.6-23.3 45.9-32.7 24.1-9.4 49.4-8.9 26.4 0 49.5 9.1 23.6 9.4 38.8 29 14.7 19 15.2 48.6zm-55.5 65.5q-10.9-5.4-26.7-7.6-15.4-2.6-30.9-0.8-15.7 1.8-26.4 10.1-10.6 8.1-12.1 24.6-0.8 19.8 8.1 30.5 9.1 10.6 24.1 14.2 14.9 3.5 31.9 2.2 16.7-1.5 32-5.8z"/><path fill-rule="evenodd" class="a" d="m2063.9 305.3v91.8q-0.5 30.7-15.5 50.8c-9.8 13.3-22.6 23.4-38.3 30.1q-23.3 9.9-48.9 10.2-6.1 0-12-0.5-20-2.1-38.3-9.7-11.6-5-21.3-12.4-9.6-7.6-17.2-17.8-15-20-15.5-50.7v-91.8q0.5-30.1 15.5-50.2 6.1-8.1 13.7-14.4 10.9-9.9 24.8-16 18.3-7.6 38.3-9.4 5.9-0.7 12-0.7 25.6 0.2 48.9 10.1c15.7 6.9 28.5 17.1 38.3 30.4q7.6 10.2 11.4 22.6 3.8 12.7 4.1 27.6zm-55.8 0q-0.3-12.4-7.4-20.5-7.1-8.1-17.7-11.9-10.7-4.1-21.8-4.1-6.1 0-12 1-5.8 1.1-11.1 3.1-10.9 3.8-18.3 11.9-6.8 8.1-7.1 20.5v91.8q0.3 12.7 7.1 21.3 7.4 8.7 18.3 13.5 5.3 2 11.1 3.3 5.9 1 12 1 11.1 0 21.8-4.3 10.6-4.8 17.7-13.5 7.1-8.6 7.4-21.3z"/><path fill-rule="evenodd" class="a" d="m1225.5 302v168.4q-23.8 8.9-51.7 14-27.6 4.8-55 3.5-23.1-0.8-42.9-7.8-3.5-1.3-6.8-2.8-13.2-5.6-23.1-14.7-5.1-4.9-9.4-10.4-6.1-8.7-10.1-18.6v48h-255.9l-15.7-38.6 199.1-262.7h-188.4v-57.5h250.2l18 38-199.8 264.2h189.4q-4-13.9-4.3-31.2 0.8-30.9 15.8-49.9 14.9-19.3 38.3-27.7 1.2-0.5 2.7-1 22.1-7.6 45.9-6.3 25.9 1.3 48.2 10.6v-15.9q-3.8-18-16.7-27.9-12.7-9.9-29.9-11.4-17.3-1.8-34.8 3.8-6.6 2.2-12.7 5.8-9.1 5.1-16.7 12.7l-32.4-29.7q21.5-23.3 45.8-32.7 1.6-0.8 3.3-1.3 22.6-8.1 46.2-7.6 26.4 0 49.4 9.2 23.6 9.3 38.8 28.9 14.7 19 15.2 48.6zm-55.5 65.5q-10.9-5.4-26.6-7.6-15.5-2.6-30.9-0.8-15.8 1.8-26.4 10.1-7.1 5.4-10.2 14.7-1.5 4.4-2 9.9-0.5 10.7 2 19.1 2.1 6.5 6.1 11.4 9.2 10.6 24.1 14.2 15 3.5 32 2.2 16.7-1.5 31.9-5.8z"/><path fill-rule="evenodd" class="a" d="m2264.3 606.6c9.7-3.4 20-5.3 30.3-5.3 14.7 0.1 29.4 8.3 29.4 25.3v30.4c0 16.7-14.9 25.6-29.8 25.6-7.5 0-14.7-1.8-21.4-4.9v32.3h-8.5zm8.5 63.6c6.7 2.7 14.2 4.4 21.5 4.4 10.6-0.2 21-5.6 21-16.8v-32c0-11.2-10.2-16.5-20.7-16.5-7.3 0-14.8 0.2-21.8 2.6zm-37.1 8.9c-7 2-14.5 3.5-21.7 3.5-14.5 0-29-8.5-29-25.3v-54.8h8.4v55.3c0 10.9 10.2 16.6 20.6 16.6 8.5 0 17-2.7 21.7-4.7v-67.2h8.5v74.1zm-127.8-52.4c0-17.2 15-25.5 29.8-25.6 14.8 0.1 29.7 8.4 29.7 25.6v30.2c0 17.1-14.9 25.5-29.7 25.6-14.8-0.1-29.8-8.4-29.8-25.6zm8.4-0.4v31c0 12 11.1 17.1 21.4 17.1 10.1 0 21.2-5.1 21.2-17.1v-31c0-12-11.1-17-21.2-17-10.3 0-21.4 5-21.4 17zm-16.6-24.9v8.5c-3.8-0.7-7.1-0.6-10.9 0.2-7.9 1.8-14.6 7.1-14.6 16.3v54.7h-8.4v-54.7c0-18.6 17.2-25.3 28.1-25.3 1.9 0 3.8 0.2 5.8 0.3zm-130.9 3.5c0-21.5 20.2-32.5 40.2-32.5 15.1 0 30.3 6.3 36.5 19.4l-8.1 3.9c-4.7-9.5-16.8-14.4-28.7-14.4-15.5 0-30.9 7.9-30.9 23.6v44.9c0 15.9 15.6 23.9 31.3 23.9 15.6 0 31.2-8 31.2-23.9v-13.5h-32.8v-9h41.8v22.3c0 22-20.2 33-40.2 33-20.1 0-40.3-11-40.3-33zm-59.9 21.2c0-11.2-10.8-16.8-21.7-16.8-7.9 0-15.7 2.7-19.8 7.9l-5.8-5.5c6.4-6.9 16.7-10.6 26.5-10.6 15 0 29.3 8.5 29.3 25v51.5c-10.3 3.5-21.2 5.1-32.1 5-15.4-0.2-27.5-7.9-27.5-24.2 0.2-17.7 15.2-24.6 30.2-24.6 7.2 0 14.7 1.5 20.9 4.1zm0 18.8c-5.2-2-13-3.8-20.6-3.8-11.5 0-21.8 4.1-22 17.3 0 11.9 8.4 16.5 19.4 16.6 7.7 0.2 15.8-0.4 23.2-2.2zm-58.6 37.4c-18.8 3-27.9-8.1-27.9-25v-72.6h7.4l1.1 17.9h16.9v7.6h-16.9v47.1c0 10.9 4.5 19.8 19.4 17.4zm-95.4-24.8c0 11.6 10.4 16.9 21.2 16.9 8.3 0 16.8-3.3 20-10.4l7.5 3.5c-4.7 10.1-16.2 15.1-27.5 15.1-14.9 0-29.9-8.3-29.9-25.4v-30.6c0-17.2 15-25.5 29.9-25.5 14.7 0 29.7 8.3 29.7 25.5v19h-50.9zm42.4-31.5c0-11.3-10.6-16.6-21.2-16.6-10.8 0-21.4 5.3-21.2 16.6v12.6h42.4zm-108.8 17.9l41.4-41.2h10.6l-35.1 35.4 34.8 43h-10.5l-30.3-36.9-10.9 10.9v26h-8.5v-107.2h8.5zm-31.3-25c-3.5-6.5-11.5-9.5-19.7-9.5-10.6 0-21.2 5-21.2 16.6v31.8c0 11.6 10.6 16.7 21.2 16.7 9.1 0 18.2-3.8 20.6-12.1l7.7 3.5c-4.1 11.3-16.2 16.8-28.3 16.8-14.7 0-29.7-8.3-29.7-25.5v-30.6c0-17.1 15-25.4 29.7-25.4 10.9 0 21.7 4.4 26.8 13.5zm-75.1 7.3c0-11.2-10.8-16.8-21.7-16.8-7.8 0-15.7 2.7-19.8 7.8l-5.8-5.4c6.4-7 16.7-10.6 26.5-10.6 15 0 29.3 8.4 29.3 25v51.4c-10.3 3.5-21.2 5.2-32.1 5-15.3-0.1-27.5-7.8-27.5-24.2 0.2-17.7 15.2-24.5 30.2-24.5 7.3 0 14.7 1.5 20.9 4.1zm0 18.7c-5.2-1.9-13-3.7-20.6-3.7-11.5 0-21.8 4-22 17.2 0 12 8.4 16.5 19.4 16.7 7.7 0.1 15.8-0.5 23.2-2.3zm-136.2 36.2v-107.2h40.5c47.4 0 47.2 67.1 0.1 67.1h-31.6v40.1zm40.4-49.1c35.9 0 35.1-49.6 0-49.2h-31.5v49.2zm-85.1-50.9c-12.4-1.3-18 4.3-18 17.6v7.6h16.9v7.5h-16.9v67.3h-8.5v-82.4c0-18.6 10.9-27.1 26.5-25.4zm-104.2 45.6c0-17.2 15-25.5 29.8-25.6 14.9 0.1 29.7 8.4 29.7 25.6v30.2c0 17.2-14.8 25.5-29.7 25.6-14.8-0.1-29.8-8.4-29.8-25.6zm8.5-0.4v31c0 12 11 17.1 21.3 17.1 10.2 0 21.2-5.1 21.2-17.1v-31c0-12-11-17-21.2-17-10.3 0-21.3 5-21.3 17zm-48.5-24.8v8.4c-3.8-0.7-7.1-0.6-10.9 0.2-7.8 1.8-14.5 7.1-14.5 16.3v54.7h-8.5v-54.7c0-18.6 17.3-25.3 28.2-25.3 1.8 0 3.8 0.2 5.7 0.4zm-101.4 56c0 11.7 10.4 17 21.2 17 8.3 0 16.8-3.4 20-10.5l7.5 3.5c-4.7 10.1-16.2 15.1-27.5 15.1-14.9 0-29.9-8.3-29.9-25.4v-30.6c0-17.1 15-25.5 29.9-25.5 14.7 0 29.6 8.4 29.6 25.5v19.1h-50.8zm42.4-31.5c0-11.4-10.6-16.7-21.2-16.7-10.8 0-21.4 5.3-21.2 16.7v12.5h42.4zm-118-20.1c6.7-3 13.9-4.7 21.4-4.7 14.9-0.2 29.8 8.9 29.8 25.4v30.6c0 17.6-14.7 25.2-29.4 25.5-10.3 0-20.6-2-30.3-5.3v-103.8h8.5zm0 7.9v57.7c7 2.4 14.5 2.9 21.8 2.9 10.5 0 20.9-5.6 20.8-16.8v-31.4c0.1-11.3-10.5-16.6-21.1-16.8-7.3 0-14.8 1.5-21.5 4.4zm-131.3 67.4v-73.3c6.8-3.8 16.5-6.7 26.1-6.7 9.5 0 18.9 2.9 24.8 10.6 5.8-7.4 14.9-10.6 22.9-10.6 15.7 0 29.4 8.7 29.4 26.2v53.8h-8.7v-53.8c0-13.1-9.8-18-20.4-18-8.4 0-18.8 4.7-18.8 14.1v57.7h-8.3v-57.1c0-10.1-11.4-14.7-22.1-14.7-6.4 0-12.6 1.5-16.3 4.4v67.4zm-67.7-23.6c0 11.7 10.5 17 21.2 17 8.4 0 16.8-3.4 20-10.5l7.6 3.5c-4.7 10.1-16.2 15.1-27.6 15.1-14.8 0-29.8-8.3-29.8-25.4v-30.6c0-17.1 15-25.5 29.8-25.5 14.7 0 29.7 8.4 29.7 25.5v19.1h-50.9zm42.4-31.5c0-11.4-10.6-16.7-21.2-16.7-10.7 0-21.3 5.3-21.2 16.7v12.5h42.4zm-159.6-39.6v94.8h-8.9v-107.3h13l35.9 81.1 35.7-81.1h13.1v107.3h-9v-94.8l-35.6 80.1h-8.4z"/></svg>