<svg version="1.2" xmlns="http://www.w3.org/2000/svg" viewBox="0 0 1759 1394" width="1759" height="1394"><style>.a{fill:#ba1b02}</style><path class="a" d="m893.7 248l-14.4 6.9-14.4-6.9-201.6-99.8 95.6-36.6 206.7 100.6zm201.8-99.9l-72.1 35.1-209.1-93.2 65-25.1z"/><path class="a" d="m887.1 0.4l264.5 102.5-37.2 29.8-235.1-91.3-235.1 91.3-37.2-29.8 264.7-102.5zm233.5 141.1l43.8-16.8-32.9 271.8-6.7 12.1-232 209.1-7.6-48.1 206.8-186.2zm-486.8 267l-6.6-12-32.9-271.8 43.7 16.8 28.9 242.1 206.5 186.2-7.3 47.9z"/><path class="a" d="m1029 191.8l66.7-40.8-26.2 218.9-188.8 170.3 10.4-263.7 82.8-51-5.4 129.2 51.5-36.3z"/><path class="a" d="m867.5 276.5l10.4 263.4-188.5-170-26.5-218.9z"/><path class="a" d="m192 1283.8v84.5h-7.9v-95.6h11.6l31.8 72.2 31.8-72.2h11.6v95.6h-8v-84.5l-31.6 71.4h-7.5z"/><path fill-rule="evenodd" class="a" d="m296.2 1347.2c0 10.4 9.2 15.1 18.8 15.1 7.4 0 14.9-3 17.8-9.3l6.7 3.1c-4.2 9-14.4 13.5-24.5 13.5-13.2 0-26.5-7.4-26.5-22.7v-27.2c0-15.3 13.3-22.7 26.5-22.7 13 0 26.4 7.4 26.4 22.7v17h-45.2v10.5zm37.6-28.1c0-10.1-9.4-14.8-18.8-14.8-9.6 0-19 4.7-18.8 14.8v11.2h37.6v-11.2z"/><path class="a" d="m356.3 1303c6.1-3.4 14.7-6 23.1-6 8.5 0 16.9 2.6 22.1 9.5 5.1-6.6 13.2-9.5 20.3-9.5 14 0 26.1 7.7 26.1 23.4v47.8h-7.6v-47.8c0-11.8-8.8-16.1-18.2-16.1-7.4 0-16.7 4.2-16.7 12.5v51.4h-7.4v-50.8c0-9.1-10.1-13.1-19.6-13.1-5.7 0-11.2 1.4-14.4 3.9v60h-7.7v-65.2z"/><path fill-rule="evenodd" class="a" d="m473 1301.2c5.9-2.7 12.3-4.2 18.9-4.2 13.4-0.1 26.5 8 26.5 22.7v27.2c0 15.7-13 22.4-26.1 22.7-9.1 0-18.3-1.8-26.9-4.7v-92.4h7.6zm0 58.4c6.2 2.1 12.9 2.5 19.3 2.5 9.3 0 18.6-5 18.5-14.9v-28c0.1-10.1-9.3-14.8-18.7-14.9-6.5 0-13.2 1.3-19.1 3.9v51.4z"/><path fill-rule="evenodd" class="a" d="m540.1 1347.2c0 10.4 9.3 15.1 18.8 15.1 7.4 0 15-3 17.8-9.3l6.7 3.1c-4.1 9-14.4 13.5-24.5 13.5-13.1 0-26.5-7.4-26.5-22.7v-27.2c0-15.3 13.4-22.7 26.5-22.7 13.1 0 26.4 7.4 26.4 22.7v17h-45.2v10.5zm37.7-28.1c0-10.1-9.4-14.8-18.9-14.8-9.5 0-18.9 4.7-18.8 14.8v11.2h37.7v-11.2z"/><path class="a" d="m630.2 1297.3v7.5c-3.3-0.6-6.3-0.5-9.6 0.2-7 1.6-13 6.3-13 14.6v48.7h-7.5v-48.7c0-16.6 15.3-22.6 25-22.6 1.6 0 3.4 0.2 5.1 0.3z"/><path fill-rule="evenodd" class="a" d="m665.8 1319.8c0-15.2 13.3-22.6 26.5-22.8 13.2 0.2 26.3 7.6 26.3 22.8v27c0 15.2-13.1 22.7-26.3 22.8-13.2-0.1-26.5-7.6-26.5-22.8zm7.5-0.4v27.6c0 10.7 9.8 15.3 19 15.3 9 0 18.8-4.6 18.8-15.3v-27.6c0-10.7-9.8-15.1-18.8-15.1-9.2 0-19 4.4-19 15.1z"/><path class="a" d="m758.3 1279.2c-11-1.2-16 3.8-16 15.7v6.7h15.1v6.7h-15.1v59.9h-7.5v-73.3c0-16.6 9.7-24.2 23.5-22.7z"/><path fill-rule="evenodd" class="a" d="m798 1272.7h36c42.1 0 41.9 59.8 0.1 59.8h-28.1v35.7h-8zm36 51.8c31.8 0 31.2-44.2 0-43.8h-28v43.8z"/><path fill-rule="evenodd" class="a" d="m919 1319.3c0-10-9.6-15-19.2-15-7 0-14 2.4-17.7 7l-5.1-4.8c5.7-6.2 14.8-9.5 23.6-9.5 13.3 0 25.9 7.6 25.9 22.3v45.8c-9.1 3.1-18.8 4.6-28.5 4.5-13.6-0.1-24.3-7-24.3-21.6 0.1-15.8 13.4-21.8 26.7-21.8 6.5 0 13.1 1.3 18.6 3.6v-10.5zm0 16.7c-4.6-1.7-11.6-3.4-18.3-3.4-10.2 0-19.4 3.7-19.5 15.4 0 10.7 7.4 14.7 17.2 14.8 6.9 0.2 14-0.4 20.6-2z"/><path class="a" d="m985.7 1312.8c-3.1-5.8-10.2-8.5-17.5-8.5-9.4 0-18.8 4.5-18.8 14.8v28.4c0 10.2 9.4 14.8 18.8 14.8 8.1 0 16.2-3.4 18.3-10.8l6.9 3.1c-3.6 10.1-14.4 15-25.2 15-13 0-26.3-7.4-26.3-22.7v-27.2c0-15.3 13.3-22.7 26.3-22.7 9.7 0 19.3 3.9 23.9 12z"/><path class="a" d="m1013.6 1335.1l36.7-36.7h9.4l-31.2 31.5 31 38.3h-9.3l-26.9-32.9-9.7 9.7v23.2h-7.6v-95.5h7.6z"/><path fill-rule="evenodd" class="a" d="m1072.5 1347.2c0 10.4 9.3 15.1 18.9 15.1 7.4 0 14.9-3 17.7-9.3l6.7 3.1c-4.1 9-14.4 13.5-24.4 13.5-13.2 0-26.6-7.4-26.6-22.7v-27.2c0-15.3 13.4-22.7 26.6-22.7 13 0 26.3 7.4 26.3 22.7v17h-45.2v10.5zm37.7-28.1c0-10.1-9.4-14.8-18.8-14.8-9.6 0-19 4.7-18.9 14.8v11.2h37.7v-11.2z"/><path class="a" d="m1157.3 1369.3c-16.7 2.7-24.8-7.1-24.8-22.2v-64.6h6.6l1 15.9h15v6.7h-15v42c0 9.7 4 17.6 17.2 15.5z"/><path fill-rule="evenodd" class="a" d="m1209.4 1319.3c0-10-9.6-15-19.3-15-7 0-14 2.4-17.6 7l-5.1-4.8c5.6-6.2 14.8-9.5 23.5-9.5 13.3 0 26 7.6 26 22.3v45.8c-9.2 3.1-18.8 4.6-28.5 4.5-13.6-0.1-24.4-7-24.4-21.6 0.1-15.8 13.5-21.8 26.8-21.8 6.4 0 13 1.3 18.5 3.6v-10.5zm0 16.7c-4.5-1.7-11.5-3.4-18.2-3.4-10.3 0-19.4 3.7-19.6 15.4 0 10.7 7.4 14.7 17.3 14.8 6.8 0.2 14-0.4 20.5-2z"/><path class="a" d="m1262.6 1300.4c0-19.2 17.9-29 35.7-29 13.4 0 26.9 5.7 32.4 17.3l-7.1 3.5c-4.2-8.5-15-12.8-25.6-12.8-13.7 0-27.4 7-27.4 21v39.9c0 14.2 13.8 21.3 27.8 21.3 13.9 0 27.7-7.1 27.7-21.3v-12h-29.2v-7.9h37.2v19.8c0 19.5-17.9 29.4-35.7 29.4-17.9 0-35.8-9.9-35.8-29.4v-39.8z"/><path class="a" d="m1378.9 1297.3v7.5c-3.4-0.6-6.3-0.5-9.7 0.2-7 1.6-12.9 6.3-12.9 14.6v48.7h-7.6v-48.7c0-16.6 15.4-22.6 25.1-22.6 1.6 0 3.3 0.2 5.1 0.3z"/><path fill-rule="evenodd" class="a" d="m1386.1 1319.8c0-15.2 13.4-22.6 26.6-22.8 13.1 0.2 26.3 7.6 26.3 22.8v27c0 15.2-13.2 22.7-26.3 22.8-13.2-0.1-26.6-7.6-26.6-22.8zm7.6-0.4v27.6c0 10.7 9.8 15.3 19 15.3 9 0 18.8-4.6 18.8-15.3v-27.6c0-10.7-9.8-15.1-18.8-15.1-9.2 0-19 4.4-19 15.1z"/><path class="a" d="m1499.7 1366.5c-6.2 1.7-12.9 3.1-19.2 3.1-12.9 0-25.9-7.6-25.9-22.5v-48.9h7.6v49.3c0 9.7 9 14.8 18.3 14.8 7.5 0 15-2.4 19.2-4.2v-59.9h7.6v66z"/><path fill-rule="evenodd" class="a" d="m1525.1 1301.9c8.7-3 17.8-4.7 27-4.7 13 0.1 26.1 7.4 26.1 22.5v27.1c0 14.8-13.2 22.8-26.6 22.8-6.5 0-13-1.6-18.9-4.3v28.7h-7.6zm7.6 56.7c5.9 2.4 12.6 3.9 19.1 3.9 9.4-0.2 18.7-5 18.7-15v-28.5c0-10-9.2-14.7-18.5-14.7-6.4 0-13.1 0.2-19.3 2.3v52z"/><path class="a" d="m669.9 823q8.5 8.8 8.8 22.8-0.3 13.3-8.8 22.1-8.6 9-22.8 9.2-13.3-0.2-21.8-9.2-8.8-8.8-9-22.1 0.2-14 9-22.8 8.5-8.5 21.8-9 14.2 0.5 22.8 9z"/><path class="a" d="m346.6 885.7h-48.7l32-52.8h61z"/><path class="a" d="m1514.4 907.5q20.3 9 32.6 26.6 12.2 17.6 12.7 45.1v154.3h-48.9v-153.9q-1.2-14.6-10.6-23.2-9.3-8.5-23-11.7-13.3-3.1-27-1.3-13.8 1.8-23.5 7.4v182.7h-49.3v-220.1q7.6-1.1 12.8-2.7 7.9-2.5 24.1-7.9 15.4-5.2 40.1-6.1 1.6-0.2 3.2 0 6.1-0.2 12.4 0.2 24.1 1.6 44.4 10.6z"/><path class="a" d="m1369.5 913.8l-77.5 219.7h-52.3l-77.5-219.7q25.7 0 47.3-13.7l46.9 135.8 7.6 46.5h3.6l7.7-46.5 46.9-135.8q21.6 13.7 47.3 13.7z"/><path class="a" d="m565.1 1004.8q17.4 7 28.6 21.2 11.3 14.5 11.7 39-0.4 27.3-14.4 44.6-14.2 17.1-36 24.1-22.1 7-46.4 3.9-24.4-3.4-45.1-17.2-20.5-13.5-32.2-37.8l36.9-23.9q9.3 15.6 23.5 23.9 14.4 8.6 28.8 9.5 14.6 1.1 25-5.5 10.1-6.3 11-20.7-0.2-8.5-5.8-13.3-5.6-5.1-14-8.1-8.6-2.5-16.9-4.3-12.4-2.2-26.8-6.5-14-4.3-26.8-12.2-12.9-7.6-21-20.7-7-11.2-7.9-27.9 0-0.5 0-0.9-0.2-1.8-0.2-3.9 0.5-25.9 13.8-41.4 13-15.8 32.9-23 19.8-7 40.3-6.8 18.9 0 38.7 8.1 19.9 8.4 37.5 25.3l-29.8 32.4q-9.9-9.7-23.6-14.6-13.8-5.2-27.3-5.4-13.3 0-22.8 5.2-9.2 5.1-10.8 16.2-0.4 10.1 5.9 16.4 6.7 6.3 16.7 9.5 9.9 3.4 19.8 4.7 19.1 2.7 36.7 10.1z"/><path class="a" d="m796.3 1088.9c0-0.7 0-274.4 0-274.4h49.6v179.8l23.2-25.7 0.2-0.5 60.4-67.8h61.9l-97.3 107.5 96.9 125.7h-58.1l-73.5-95.5-13.7 13.9v81.6l-47.6 0.1c-1.3 0-53.4-0.3-75.5-19.9q-23.2-21.2-23.4-58.6v-240.6h49.6v240.6q-0.3 14.6 9.7 24.1c5.4 5.1 19.1 8.5 37.6 9.7z"/><path class="a" d="m673 1133.5h-49.5v-233.9h49.5z"/><path fill-rule="evenodd" class="a" d="m1758.4 974v149.6q-21.2 7.9-46 12.4-24.5 4.3-48.9 3.1-24.1-0.9-44.1-9.4-20.1-8.6-31.8-26.6-12.2-18-12.6-47.6 0.7-27.4 13.9-44.3 13.4-17.2 34.1-24.6 20.7-7.7 43.2-6.5 23 1.1 42.9 9.4v-14.2q-3.4-16-14.9-24.8-11.3-8.7-26.6-10.1-15.3-1.6-30.9 3.4-15.1 5.2-26.1 16.4l-28.8-26.3q19.1-20.7 40.7-29.1 21.4-8.3 44-7.9 23.4 0 43.9 8.1 21 8.4 34.5 25.7 13 16.9 13.5 43.3zm-49.3 58.1q-9.7-4.7-23.7-6.7-13.7-2.3-27.5-0.7-14 1.6-23.4 9-9.5 7.2-10.8 21.8-0.7 17.6 7.2 27.1 8.1 9.5 21.4 12.6 13.3 3.2 28.4 2 14.8-1.3 28.4-5.2z"/><path fill-rule="evenodd" class="a" d="m1163.1 976.9v81.6q-0.4 27.3-13.7 45.1c-8.7 11.8-20.1 20.8-34.1 26.8q-20.7 8.8-43.4 9-5.5 0-10.6-0.5-17.8-1.8-34.1-8.5-10.3-4.5-18.9-11.1-8.6-6.7-15.3-15.7-13.3-17.8-13.8-45.1v-81.6q0.5-26.8 13.8-44.6 5.4-7.2 12.2-12.8 9.6-8.8 22-14.2 16.3-6.8 34.1-8.4 5.1-0.6 10.6-0.6 22.7 0.2 43.4 9c14 6.1 25.4 15.2 34.1 27q6.7 9 10.1 20.1 3.4 11.2 3.6 24.5zm-49.6 0q-0.2-11-6.5-18.2-6.3-7.2-15.8-10.6-9.4-3.6-19.3-3.6-5.5 0-10.6 0.9-5.2 0.9-10 2.7-9.6 3.4-16.2 10.6-6.1 7.2-6.3 18.2v81.6q0.2 11.3 6.3 18.9 6.6 7.7 16.2 12 4.8 1.8 10 2.9 5.1 0.9 10.6 0.9 9.9 0 19.3-3.8 9.5-4.3 15.8-12 6.3-7.6 6.5-18.9z"/><path fill-rule="evenodd" class="a" d="m418.2 974v149.6q-21.2 7.9-46 12.4-24.5 4.3-48.9 3.2-20.5-0.7-38-7-3.2-1.2-6.1-2.5-11.7-5-20.5-13.1-4.5-4.3-8.4-9.2-5.4-7.7-9-16.5v42.6h-227.3l-14-34.2 176.9-233.5h-167.4v-51.1h222.4l16 33.8-177.6 234.8h168.3q-3.6-12.4-3.8-27.7 0.7-27.5 14-44.4 13.3-17.1 34-24.6 1.1-0.4 2.5-0.9 19.6-6.7 40.7-5.6 23 1.1 42.9 9.4v-14.2q-3.4-16-14.9-24.7-11.3-8.8-26.6-10.2-15.3-1.6-30.9 3.4-5.8 2-11.2 5.2-8.1 4.5-14.9 11.2l-28.8-26.3q19.1-20.7 40.7-29.1 1.4-0.7 3-1.1 20-7.2 41-6.8 23.4 0 43.9 8.1 21 8.4 34.5 25.7 13.1 16.9 13.5 43.3zm-49.3 58.1q-9.7-4.7-23.7-6.7-13.7-2.3-27.5-0.7-14 1.6-23.4 9-6.3 4.7-9 13.1-1.4 3.8-1.8 8.8-0.5 9.4 1.8 16.9 1.8 5.8 5.4 10.1 8.1 9.5 21.4 12.6 13.3 3.2 28.4 2 14.8-1.3 28.4-5.1z"/></svg>