<svg version="1.2" xmlns="http://www.w3.org/2000/svg" viewBox="0 0 2734 625" width="2734" height="625"><style>.a{fill:#ba1b02}</style><path class="a" d="m303.7 251l-14.6 6.9-14.7-6.9-204.3-101 96.9-37 209.6 101.8zm204.6-101l-73.1 35.5-212.1-94.3 66-25.4z"/><path class="a" d="m297 0.5l268.2 103.7-37.7 30.2-238.4-92.4-238.5 92.4-37.7-30.2 268.5-103.7zm236.7 142.8l44.4-17.1-33.3 275-6.7 12.2-235.4 211.6-7.6-48.7 209.6-188.3zm-493.7 270.1l-6.7-12.2-33.3-275 44.4 17.1 29.2 244.9 209.4 188.3-7.4 48.5z"/><path class="a" d="m440.9 194.1l67.6-41.2-26.6 221.4-191.4 172.2 10.6-266.7 83.9-51.6-5.5 130.7 52.3-36.7z"/><path class="a" d="m277.1 279.8l10.5 266.5-191.2-172-26.8-221.4z"/><path class="a" d="m2459.2 227.4q22.8 10.2 36.7 30 13.7 19.7 14.2 50.7v173.7h-55v-173.2q-1.3-16.5-11.9-26.1-10.4-9.7-25.9-13.2-14.9-3.6-30.4-1.5-15.5 2-26.4 8.3v205.7h-55.5v-247.8q8.6-1.2 14.5-3 8.8-2.8 27.1-8.9 17.2-5.8 45.1-6.8 1.8-0.3 3.6 0 6.8-0.3 13.9 0.2 27.1 1.8 50 11.9z"/><path class="a" d="m2296.1 234.5l-87.2 247.3h-58.8l-87.3-247.3q28.9 0 53.3-15.4l52.7 152.9 8.6 52.2h4.1l8.6-52.2 52.7-152.9q24.4 15.4 53.3 15.4z"/><path class="a" d="m1390.9 337q19.5 7.8 32.2 23.8 12.7 16.2 13.2 43.9-0.5 30.7-16.3 50.2-15.9 19.3-40.5 27.1-24.9 7.9-52.3 4.3-27.4-3.8-50.7-19.2-23.1-15.3-36.2-42.6l41.5-26.9q10.4 17.5 26.4 26.9 16.2 9.6 32.5 10.6 16.5 1.3 28.1-6.1 11.4-7.1 12.4-23.3-0.2-9.6-6.6-15-6.3-5.8-15.7-9.1-9.6-2.8-19-4.8-14-2.5-30.2-7.4-15.7-4.8-30.2-13.7-14.4-8.6-23.5-23.3-7.9-12.6-8.9-31.4 0-0.5 0-1-0.3-2.1-0.3-4.3 0.5-29.2 15.5-46.7 14.7-17.7 37-25.9 22.3-7.8 45.4-7.6 21.3 0 43.6 9.2 22.4 9.3 42.1 28.3l-33.4 36.6q-11.2-10.9-26.7-16.5-15.4-5.8-30.7-6.1-14.9 0-25.6 5.8-10.4 5.9-12.1 18.3-0.5 11.4 6.6 18.5 7.6 7.1 18.7 10.7 11.2 3.8 22.3 5.3 21.6 3 41.4 11.4z"/><path class="a" d="m1508.8 132.3q9.6 9.9 9.9 25.7-0.3 14.9-9.9 24.8-9.7 10.1-25.6 10.4-15-0.3-24.6-10.4-9.9-9.9-10.2-24.8 0.3-15.8 10.2-25.7 9.6-9.6 24.6-10.1 16 0.5 25.6 10.1z"/><path class="a" d="m1651 431.6c0-0.8 0-308.9 0-308.9h55.8v202.4l26.2-29 0.2-0.5 68-76.3h69.7l-109.5 121 109 141.5h-65.4l-82.7-107.6-15.5 15.8v91.8l-53.5 2c-1.5 0-1.6 0-2.9 0-1.7 0-3.6-0.2-3.6-0.2l-2.9-0.3q-53.5-3.8-75.5-23.9-26.1-23.8-26.4-65.9v-270.8h55.8v270.8q-0.3 16.5 10.9 27.2c6.1 5.7 21.6 9.5 42.3 10.9z"/><path class="a" d="m1512.3 481.8h-55.7v-263.2h55.7z"/><path class="a" d="m1144.9 202.8h-54.8l36.1-59.3h68.7z"/><path fill-rule="evenodd" class="a" d="m2733.8 302.2v168.4c-15.9 5.9-33.2 10.6-51.8 13.9q-27.6 4.9-55 3.6-27.1-1-49.7-10.7-22.6-9.6-35.7-29.9-13.7-20.3-14.2-53.5 0.7-30.9 15.7-49.9 15-19.3 38.3-27.7 23.3-8.6 48.7-7.3 25.8 1.3 48.2 10.6v-15.9q-3.9-18-16.8-27.9-12.7-9.9-29.9-11.5-17.3-1.7-34.7 3.9-17 5.8-29.5 18.5l-32.4-29.7q21.6-23.3 45.9-32.7 24.1-9.4 49.4-8.9 26.4 0 49.5 9.1 23.6 9.4 38.8 29 14.7 19 15.2 48.6zm-55.5 65.5q-10.9-5.4-26.7-7.6-15.4-2.6-30.9-0.8-15.7 1.8-26.4 10.1-10.6 8.1-12.1 24.6-0.8 19.8 8.1 30.5 9.1 10.6 24.1 14.2 14.9 3.5 31.9 2.2 16.7-1.5 32-5.8z"/><path fill-rule="evenodd" class="a" d="m2063.9 305.5v91.8q-0.5 30.7-15.5 50.8c-9.8 13.3-22.6 23.4-38.3 30.1q-23.3 9.9-48.9 10.2-6.1 0-12-0.5-20-2.1-38.3-9.7-11.6-5-21.3-12.4-9.6-7.6-17.2-17.7-15-20.1-15.5-50.8v-91.7q0.5-30.2 15.5-50.3 6.1-8.1 13.7-14.4 10.9-9.9 24.8-16 18.3-7.6 38.3-9.4 5.9-0.7 12-0.7 25.6 0.2 48.9 10.1c15.7 6.9 28.5 17.1 38.3 30.4q7.6 10.2 11.4 22.6 3.8 12.7 4.1 27.6zm-55.8 0.1q-0.3-12.5-7.4-20.6-7.1-8.1-17.7-11.9-10.7-4.1-21.8-4.1-6.1 0-12 1-5.8 1.1-11.1 3.1-10.9 3.8-18.3 11.9-6.8 8.1-7.1 20.5v91.8q0.3 12.7 7.1 21.3 7.4 8.7 18.3 13.5 5.3 2 11.1 3.3 5.9 1 12 1 11.1 0 21.8-4.3 10.6-4.8 17.7-13.5 7.1-8.6 7.4-21.3z"/><path fill-rule="evenodd" class="a" d="m1225.5 302.2v168.4q-23.8 8.9-51.7 14-27.6 4.8-55 3.5-23.1-0.7-42.9-7.8-3.5-1.3-6.8-2.8-13.2-5.6-23.1-14.7-5.1-4.9-9.4-10.4-6.1-8.7-10.1-18.6v48h-255.9l-15.7-38.6 199.1-262.7h-188.4v-57.5h250.2l18 38-199.8 264.2h189.4q-4-13.9-4.3-31.2 0.8-30.9 15.8-49.9 14.9-19.3 38.3-27.7 1.2-0.5 2.7-1 22.1-7.6 45.9-6.3 25.9 1.3 48.2 10.6v-15.9q-3.8-18-16.7-27.9-12.7-9.9-29.9-11.4-17.3-1.8-34.8 3.8-6.6 2.2-12.7 5.8-9.1 5.1-16.7 12.7l-32.4-29.7q21.5-23.3 45.8-32.7 1.6-0.8 3.3-1.3 22.6-8.1 46.2-7.6 26.4 0 49.4 9.2 23.6 9.3 38.8 28.9 14.7 19 15.2 48.6zm-55.5 65.5q-10.9-5.4-26.6-7.6-15.5-2.6-30.9-0.8-15.8 1.8-26.4 10.1-7.1 5.4-10.2 14.8-1.5 4.3-2 9.8-0.5 10.7 2 19.1 2.1 6.5 6.1 11.4 9.2 10.6 24.1 14.2 15 3.5 32 2.2 16.7-1.5 31.9-5.8z"/></svg>