<svg version="1.2" xmlns="http://www.w3.org/2000/svg" viewBox="0 0 1320 1320" width="1320" height="1320"><style>.a{fill:#ba1b02}.b{fill:#fff}.c{fill:#aaa9a6}.d{fill:#d8d7d4}</style><path class="a" d="m0 0h1320v1320h-1320z"/><path class="b" d="m667.3 435.4l-7.2 3.4-7.3-3.4-100.7-49.9 47.8-18.3 103.3 50.3zm100.9-49.9l-36.1 17.5-104.5-46.6 32.5-12.6z"/><path class="b" d="m664 311.6l132.2 51.2-18.6 15-117.5-45.7-117.6 45.7-18.6-15 132.4-51.2zm116.7 70.6l21.9-8.5-16.5 135.9-3.3 6.1-116 104.6-3.8-24.1 103.4-93.1zm-243.4 133.5l-3.3-6-16.5-135.9 21.9 8.4 14.4 121.1 103.3 93.1-3.7 23.9z"/><path class="c" d="m734.9 407.3l33.4-20.4-13.2 109.4-94.3 85.2 5.2-131.9 41.4-25.5-2.8 64.7 25.8-18.2z"/><path class="d" d="m654.1 449.6l5.2 131.8-94.2-85.1-13.3-109.4z"/><path class="b" d="m316.4 953.3v42.2h-4v-47.7h5.8l16 36.1 15.9-36.1h5.7v47.7h-3.9v-42.2l-15.8 35.7h-3.8z"/><path fill-rule="evenodd" class="b" d="m368.5 985c0 5.2 4.6 7.6 9.4 7.6 3.7 0 7.5-1.5 8.9-4.7l3.3 1.6c-2 4.5-7.2 6.7-12.2 6.7-6.6 0-13.3-3.7-13.3-11.3v-13.7c0-7.6 6.7-11.3 13.3-11.3 6.5 0 13.2 3.7 13.2 11.3v8.5h-22.6v5.3zm18.8-14c0-5.1-4.7-7.4-9.4-7.4-4.8 0-9.5 2.3-9.4 7.4v5.6h18.8v-5.6z"/><path class="b" d="m398.6 962.9c3-1.7 7.3-3 11.5-3 4.3 0 8.4 1.3 11.1 4.7 2.5-3.3 6.6-4.7 10.1-4.7 7 0 13.1 3.9 13.1 11.7v23.9h-3.9v-23.9c0-5.9-4.3-8.1-9-8.1-3.8 0-8.4 2.1-8.4 6.3v25.7h-3.7v-25.4c0-4.5-5-6.6-9.8-6.6-2.8 0-5.6 0.7-7.2 2v30h-3.8v-32.6z"/><path fill-rule="evenodd" class="b" d="m456.9 962c2.9-1.3 6.2-2.1 9.5-2.1 6.6-0.1 13.2 4 13.2 11.3v13.7c0 7.8-6.5 11.2-13 11.3-4.6 0-9.2-0.9-13.5-2.4v-46.2h3.8zm0 29.2c3.1 1.1 6.4 1.3 9.7 1.3 4.6 0 9.3-2.5 9.2-7.5v-13.9c0.1-5.1-4.7-7.5-9.4-7.5-3.2 0-6.6 0.7-9.5 1.9v25.7z"/><path fill-rule="evenodd" class="b" d="m490.5 985c0 5.2 4.6 7.6 9.4 7.6 3.7 0 7.4-1.5 8.9-4.7l3.3 1.6c-2.1 4.5-7.2 6.7-12.2 6.7-6.6 0-13.3-3.7-13.3-11.3v-13.7c0-7.6 6.7-11.3 13.3-11.3 6.5 0 13.2 3.7 13.2 11.3v8.5h-22.6v5.3zm18.8-14c0-5.1-4.7-7.4-9.4-7.4-4.8 0-9.5 2.3-9.4 7.4v5.6h18.8v-5.6z"/><path class="b" d="m535.5 960v3.8c-1.7-0.3-3.1-0.2-4.8 0.1-3.5 0.8-6.5 3.2-6.5 7.3v24.3h-3.7v-24.3c0-8.3 7.6-11.3 12.5-11.3 0.8 0 1.7 0.1 2.5 0.1z"/><path fill-rule="evenodd" class="b" d="m553.3 971.3c0-7.6 6.6-11.3 13.2-11.4 6.6 0.1 13.2 3.8 13.2 11.4v13.5c0 7.6-6.6 11.3-13.2 11.4-6.6-0.1-13.2-3.8-13.2-11.4zm3.8-0.2v13.8c0 5.3 4.9 7.6 9.4 7.6 4.5 0 9.5-2.3 9.5-7.6v-13.8c0-5.3-5-7.6-9.5-7.6-4.5 0-9.4 2.3-9.4 7.6z"/><path class="b" d="m599.6 951c-5.5-0.6-8 1.9-8 7.8v3.4h7.5v3.4h-7.5v29.9h-3.8v-36.7c0-8.3 4.8-12 11.8-11.3z"/><path fill-rule="evenodd" class="b" d="m619.4 947.8h18c21 0 21 29.8 0 29.8h-14v17.9h-4zm18 25.9c15.9 0 15.6-22.1 0-21.9h-14v21.9z"/><path fill-rule="evenodd" class="b" d="m679.9 971c0-5-4.8-7.5-9.6-7.5-3.5 0-7 1.3-8.8 3.6l-2.6-2.5c2.8-3.1 7.4-4.7 11.8-4.7 6.6 0 13 3.8 13 11.1v23c-4.6 1.5-9.5 2.3-14.3 2.2-6.8-0.1-12.2-3.5-12.2-10.8 0.1-7.9 6.8-10.9 13.4-10.9 3.2 0 6.5 0.6 9.3 1.8v-5.3zm0 8.4c-2.3-0.9-5.8-1.7-9.2-1.7-5.1 0-9.6 1.8-9.7 7.7 0 5.3 3.7 7.4 8.6 7.4 3.4 0.1 7-0.2 10.3-1z"/><path class="b" d="m713.3 967.8c-1.6-2.9-5.1-4.2-8.8-4.2-4.7 0-9.4 2.2-9.4 7.4v14.1c0 5.2 4.7 7.5 9.4 7.5 4.1 0 8.1-1.7 9.2-5.4l3.4 1.5c-1.8 5.1-7.2 7.5-12.6 7.5-6.5 0-13.2-3.7-13.2-11.3v-13.7c0-7.6 6.7-11.3 13.2-11.3 4.9 0 9.6 2 11.9 6z"/><path class="b" d="m727.2 978.9l18.4-18.3h4.7l-15.6 15.8 15.4 19.1h-4.6l-13.5-16.4-4.8 4.8v11.6h-3.8v-47.7h3.8z"/><path fill-rule="evenodd" class="b" d="m756.7 985c0 5.2 4.6 7.6 9.4 7.6 3.7 0 7.5-1.5 8.9-4.7l3.3 1.6c-2.1 4.5-7.2 6.7-12.2 6.7-6.6 0-13.3-3.7-13.3-11.3v-13.7c0-7.6 6.7-11.3 13.3-11.3 6.5 0 13.2 3.7 13.2 11.3v8.5h-22.6v5.3zm18.8-14c0-5.1-4.7-7.4-9.4-7.4-4.8 0-9.5 2.3-9.4 7.4v5.6h18.8v-5.6z"/><path class="b" d="m799 996.1c-8.3 1.3-12.3-3.6-12.3-11.2v-32.3h3.3l0.4 8h7.6v3.4h-7.6v20.9c0 4.9 2.1 8.9 8.6 7.8z"/><path fill-rule="evenodd" class="b" d="m825.1 971c0-5-4.8-7.5-9.6-7.5-3.5 0-7 1.3-8.9 3.6l-2.5-2.5c2.8-3.1 7.4-4.7 11.8-4.7 6.6 0 12.9 3.8 12.9 11.1v23c-4.5 1.5-9.4 2.3-14.2 2.2-6.8-0.1-12.2-3.5-12.2-10.8 0.1-7.9 6.7-10.9 13.4-10.9 3.2 0 6.5 0.6 9.3 1.8v-5.3zm0 8.4c-2.3-0.9-5.8-1.7-9.2-1.7-5.1 0-9.7 1.8-9.7 7.7 0 5.3 3.7 7.4 8.6 7.4 3.4 0.1 7-0.2 10.3-1z"/><path class="b" d="m851.7 961.6c0-9.6 9-14.5 17.8-14.5 6.8 0 13.5 2.8 16.3 8.6l-3.6 1.8c-2.1-4.3-7.5-6.4-12.8-6.4-6.9 0-13.7 3.5-13.7 10.5v20c0 7 6.9 10.6 13.9 10.6 6.9 0 13.9-3.6 13.9-10.6v-6h-14.6v-4h18.5v9.9c0 9.8-8.9 14.7-17.8 14.7-8.9 0-17.9-4.9-17.9-14.7v-19.9z"/><path class="b" d="m909.8 960v3.8c-1.6-0.3-3.1-0.2-4.8 0.1-3.5 0.8-6.5 3.2-6.5 7.3v24.3h-3.7v-24.3c0-8.3 7.6-11.3 12.5-11.3 0.8 0 1.7 0.1 2.5 0.1z"/><path fill-rule="evenodd" class="b" d="m913.5 971.3c0-7.6 6.6-11.3 13.2-11.4 6.6 0.1 13.2 3.8 13.2 11.4v13.5c0 7.6-6.6 11.3-13.2 11.4-6.6-0.1-13.2-3.8-13.2-11.4zm3.7-0.2v13.8c0 5.3 5 7.6 9.5 7.6 4.5 0 9.4-2.3 9.4-7.6v-13.8c0-5.3-4.9-7.6-9.4-7.6-4.5 0-9.5 2.3-9.5 7.6z"/><path class="b" d="m970.3 994.6c-3.1 0.9-6.5 1.6-9.7 1.6-6.4 0-12.9-3.8-12.9-11.3v-24.4h3.8v24.6c0 4.9 4.5 7.5 9.1 7.5 3.8 0 7.6-1.3 9.7-2.1v-30h3.7v33z"/><path fill-rule="evenodd" class="b" d="m983 962.3c4.3-1.4 8.9-2.3 13.4-2.3 6.6 0 13.1 3.7 13.1 11.2v13.6c0 7.4-6.6 11.4-13.3 11.4-3.3 0-6.5-0.8-9.5-2.2v14.4h-3.7zm3.7 28.3c3 1.2 6.4 2 9.6 2 4.7-0.1 9.3-2.5 9.3-7.5v-14.2c0-5-4.5-7.4-9.2-7.4-3.2 0-6.6 0.1-9.7 1.2v25.9z"/><path class="b" d="m555.3 722.9q4.3 4.4 4.4 11.4-0.1 6.6-4.4 11-4.2 4.5-11.3 4.6-6.7-0.1-11-4.6-4.4-4.4-4.5-11 0.1-7 4.5-11.4 4.3-4.3 11-4.5 7.1 0.2 11.3 4.5z"/><path class="b" d="m393.7 754.2h-24.4l16-26.3h30.6z"/><path class="b" d="m977.6 765.2q10.1 4.5 16.3 13.3 6.1 8.7 6.3 22.5v77.2h-24.4v-77q-0.6-7.3-5.3-11.6-4.6-4.3-11.5-5.9-6.6-1.5-13.5-0.6-6.9 0.9-11.7 3.7v91.4h-24.7v-110.1q3.8-0.6 6.4-1.4 4-1.2 12.1-3.9 7.6-2.6 20-3 0.8-0.2 1.6 0 3-0.2 6.2 0.1 12.1 0.8 22.2 5.3z"/><path class="b" d="m905.2 768.3l-38.8 109.9h-26.1l-38.8-109.9q12.8 0 23.7-6.9l23.4 68 3.8 23.2h1.8l3.9-23.2 23.4-68q10.8 6.9 23.7 6.9z"/><path class="b" d="m503 813.8q8.6 3.5 14.3 10.6 5.6 7.2 5.8 19.5-0.2 13.6-7.2 22.3-7.1 8.6-18 12.1-11 3.5-23.2 1.9-12.2-1.7-22.5-8.6-10.3-6.7-16.2-18.9l18.5-12q4.6 7.8 11.7 12 7.2 4.3 14.5 4.7 7.3 0.6 12.5-2.7 5-3.1 5.5-10.3-0.1-4.3-3-6.7-2.8-2.6-6.9-4-4.3-1.3-8.5-2.2-6.2-1.1-13.4-3.2-7-2.2-13.4-6.1-6.4-3.9-10.5-10.4-3.5-5.6-3.9-14 0-0.2 0-0.4-0.1-0.9-0.1-1.9 0.2-13 6.8-20.8 6.6-7.8 16.5-11.5 9.9-3.4 20.1-3.3 9.5 0 19.4 4 9.9 4.2 18.7 12.6l-14.8 16.3q-5-4.9-11.9-7.4-6.8-2.6-13.6-2.7-6.7 0-11.4 2.6-4.6 2.6-5.4 8.1-0.2 5.1 2.9 8.3 3.4 3.1 8.4 4.7 4.9 1.7 9.9 2.4 9.6 1.3 18.4 5z"/><path class="b" d="m618.5 855.8c0-0.3 0-137.2 0-137.2h24.8v89.9l11.6-12.8 0.1-0.2 30.2-33.9h31l-48.6 53.7 48.4 62.9h-29.1l-36.7-47.8-6.9 7v40.8h-23.7c-0.7 0-26.7-0.1-37.8-10q-11.6-10.5-11.7-29.2v-120.4h24.8v120.4q-0.1 7.3 4.8 12c2.7 2.6 9.6 4.3 18.8 4.8z"/><path class="b" d="m556.9 878.2h-24.8v-117h24.8z"/><path fill-rule="evenodd" class="b" d="m1099.6 798.4v74.8q-10.6 3.9-23 6.2-12.3 2.1-24.4 1.6-12.1-0.5-22.1-4.8-10-4.2-15.9-13.3-6.1-9-6.3-23.7 0.3-13.8 7-22.2 6.6-8.6 17-12.3 10.4-3.8 21.6-3.3 11.5 0.6 21.4 4.8v-7.1q-1.7-8-7.4-12.4-5.6-4.4-13.3-5.1-7.7-0.8-15.4 1.7-7.6 2.6-13.1 8.2l-14.4-13.2q9.6-10.3 20.4-14.5 10.7-4.2 21.9-3.9 11.8 0 22 4 10.5 4.2 17.2 12.9 6.6 8.4 6.8 21.6zm-24.7 29.1q-4.8-2.4-11.8-3.4-6.9-1.2-13.7-0.4-7 0.8-11.8 4.5-4.7 3.7-5.4 11-0.3 8.8 3.6 13.5 4.1 4.7 10.7 6.3 6.7 1.6 14.2 1 7.5-0.7 14.2-2.6z"/><path fill-rule="evenodd" class="b" d="m802 799.9v40.7q-0.3 13.7-6.9 22.6-6.5 8.9-17 13.4-10.4 4.4-21.8 4.5-2.7 0-5.3-0.2-8.9-0.9-17-4.3-5.2-2.3-9.4-5.5-4.3-3.4-7.7-7.9-6.7-8.9-6.9-22.6v-40.7q0.2-13.4 6.9-22.3 2.7-3.6 6.1-6.5 4.8-4.4 11-7.1 8.1-3.3 17-4.1 2.6-0.4 5.3-0.4 11.4 0.1 21.8 4.5 10.5 4.7 17 13.6 3.4 4.5 5.1 10 1.6 5.6 1.8 12.3zm-24.8 0q-0.1-5.6-3.3-9.2-3.2-3.6-7.9-5.3-4.7-1.8-9.7-1.8-2.7 0-5.3 0.5-2.6 0.4-4.9 1.3-4.9 1.7-8.1 5.3-3.1 3.6-3.2 9.2v40.7q0.1 5.7 3.2 9.5 3.2 3.8 8.1 6 2.3 0.9 4.9 1.4 2.6 0.5 5.3 0.5 5 0 9.7-1.9 4.7-2.2 7.9-6 3.2-3.8 3.3-9.5z"/><path fill-rule="evenodd" class="b" d="m429.5 798.4v74.8q-10.6 4-23 6.2-12.3 2.1-24.4 1.6-10.3-0.4-19.1-3.5-1.5-0.6-3-1.3-5.9-2.4-10.3-6.5-2.2-2.1-4.1-4.6-2.7-3.8-4.5-8.2v21.3h-113.7l-7-17.2 88.4-116.7h-83.7v-25.6h111.2l8 16.9-88.7 117.4h84.1q-1.8-6.2-1.9-13.8 0.3-13.8 7-22.2 6.6-8.6 17-12.3 0.6-0.2 1.2-0.4 9.8-3.4 20.4-2.9 11.5 0.6 21.4 4.8v-7.1q-1.7-8-7.4-12.4-5.6-4.4-13.3-5.1-7.7-0.8-15.4 1.7-3 1-5.7 2.6-4 2.2-7.4 5.6l-14.4-13.2q9.6-10.3 20.4-14.5 0.6-0.3 1.4-0.6 10.1-3.6 20.5-3.3 11.8 0 22 4 10.5 4.2 17.2 12.9 6.6 8.4 6.8 21.6zm-24.7 29.1q-4.8-2.4-11.8-3.4-6.9-1.1-13.7-0.4-7 0.8-11.8 4.5-3.1 2.4-4.5 6.6-0.6 1.9-0.9 4.4-0.2 4.7 0.9 8.4 0.9 3 2.7 5.1 4.1 4.7 10.7 6.3 6.7 1.6 14.2 1 7.5-0.7 14.2-2.6z"/></svg>