<svg version="1.2" xmlns="http://www.w3.org/2000/svg" viewBox="0 0 1320 1320" width="1320" height="1320"><style>.a{fill:#ba1b02}.b{fill:#fff}.c{fill:#aaa9a6}.d{fill:#d8d7d4}</style><path class="a" d="m0 0h1320v1320h-1320z"/><path class="b" d="m667.3 498.3l-7.2 3.4-7.3-3.4-100.7-49.9 47.8-18.3 103.3 50.3zm100.9-49.9l-36.1 17.5-104.5-46.6 32.5-12.5z"/><path class="b" d="m664 374.5l132.2 51.2-18.6 15-117.5-45.7-117.6 45.7-18.6-15 132.4-51.2zm116.7 70.6l21.9-8.5-16.5 135.9-3.3 6.1-116 104.6-3.8-24.1 103.4-93.1zm-243.4 133.5l-3.3-6-16.5-135.9 21.9 8.4 14.4 121.1 103.3 93.1-3.7 23.9z"/><path class="c" d="m734.9 470.2l33.4-20.4-13.2 109.5-94.3 85.1 5.2-131.9 41.4-25.5-2.8 64.7 25.8-18.2z"/><path class="d" d="m654.1 512.5l5.2 131.8-94.2-85-13.3-109.5z"/><path class="b" d="m555.3 785.8q4.3 4.4 4.4 11.4-0.1 6.6-4.4 11-4.2 4.5-11.3 4.7-6.7-0.2-11-4.7-4.4-4.4-4.5-11 0.1-7 4.5-11.4 4.3-4.3 11-4.5 7.1 0.2 11.3 4.5z"/><path class="b" d="m393.7 817.1h-24.4l16-26.3h30.6z"/><path class="b" d="m977.6 828.1q10.1 4.5 16.3 13.3 6.1 8.7 6.3 22.5v77.2h-24.4v-77q-0.6-7.3-5.3-11.6-4.6-4.3-11.5-5.8-6.6-1.6-13.5-0.7-6.9 0.9-11.7 3.7v91.4h-24.7v-110.1q3.8-0.6 6.4-1.4 4-1.2 12.1-3.9 7.6-2.6 20-3 0.8-0.1 1.6 0 3-0.2 6.2 0.1 12.1 0.8 22.2 5.3z"/><path class="b" d="m905.2 831.2l-38.8 109.9h-26.1l-38.8-109.9q12.8 0 23.7-6.9l23.4 68 3.8 23.2h1.8l3.9-23.2 23.4-68q10.8 6.9 23.7 6.9z"/><path class="b" d="m503 876.7q8.6 3.5 14.3 10.6 5.6 7.2 5.8 19.5-0.2 13.6-7.2 22.3-7.1 8.6-18 12.1-11 3.5-23.2 1.9-12.2-1.7-22.5-8.6-10.3-6.7-16.2-18.9l18.5-11.9q4.6 7.7 11.7 11.9 7.2 4.3 14.5 4.7 7.3 0.6 12.5-2.7 5-3.1 5.5-10.3-0.1-4.3-3-6.7-2.8-2.6-6.9-4-4.3-1.3-8.5-2.2-6.2-1.1-13.4-3.2-7-2.2-13.4-6.1-6.4-3.9-10.5-10.4-3.5-5.6-3.9-14 0-0.2 0-0.4-0.1-0.9-0.1-1.9 0.2-13 6.8-20.8 6.6-7.8 16.5-11.4 9.9-3.5 20.1-3.4 9.5 0 19.4 4 9.9 4.2 18.7 12.6l-14.8 16.3q-5-4.9-11.9-7.4-6.8-2.5-13.6-2.7-6.7 0-11.4 2.6-4.6 2.6-5.4 8.1-0.2 5.1 2.9 8.3 3.4 3.1 8.4 4.7 4.9 1.7 9.9 2.4 9.6 1.3 18.4 5z"/><path class="b" d="m618.5 918.8c0-0.4 0-137.3 0-137.3h24.8v89.9l11.6-12.8 0.1-0.2 30.2-33.9h31l-48.6 53.7 48.4 62.9h-29.1l-36.7-47.8-6.9 7v40.8h-23.7c-0.7 0-26.7-0.1-37.8-10q-11.6-10.5-11.7-29.2v-120.4h24.8v120.4q-0.1 7.3 4.8 12c2.7 2.6 9.6 4.3 18.8 4.9z"/><path class="b" d="m556.9 941.1h-24.8v-117h24.8z"/><path fill-rule="evenodd" class="b" d="m1099.6 861.3v74.8q-10.6 4-23 6.2-12.3 2.1-24.4 1.6-12.1-0.5-22.1-4.8-10-4.2-15.9-13.2-6.1-9.1-6.3-23.8 0.3-13.8 7-22.2 6.6-8.6 17-12.3 10.4-3.8 21.6-3.3 11.5 0.6 21.4 4.8v-7.1q-1.7-8-7.4-12.4-5.6-4.4-13.3-5.1-7.7-0.8-15.4 1.7-7.6 2.6-13.1 8.2l-14.4-13.2q9.6-10.3 20.4-14.5 10.7-4.2 21.9-3.9 11.8 0 22 4 10.5 4.2 17.2 12.9 6.6 8.4 6.8 21.6zm-24.7 29.1q-4.8-2.4-11.8-3.4-6.9-1.1-13.7-0.4-7 0.8-11.8 4.6-4.7 3.6-5.4 10.9-0.3 8.8 3.6 13.5 4.1 4.7 10.7 6.3 6.7 1.6 14.2 1 7.5-0.7 14.2-2.6z"/><path fill-rule="evenodd" class="b" d="m802 862.8v40.8q-0.3 13.6-6.9 22.5-6.5 8.9-17 13.4-10.4 4.4-21.8 4.5-2.7 0-5.3-0.2-8.9-0.9-17-4.3-5.2-2.3-9.4-5.5-4.3-3.4-7.7-7.9-6.7-8.9-6.9-22.5v-40.8q0.2-13.4 6.9-22.3 2.7-3.6 6.1-6.5 4.8-4.3 11-7.1 8.1-3.3 17-4.1 2.6-0.4 5.3-0.4 11.4 0.1 21.8 4.5 10.5 4.7 17 13.6 3.4 4.5 5.1 10 1.6 5.6 1.8 12.3zm-24.8 0q-0.1-5.5-3.3-9.2-3.2-3.6-7.9-5.3-4.7-1.8-9.7-1.8-2.7 0-5.3 0.5-2.6 0.4-4.9 1.3-4.9 1.7-8.1 5.3-3.1 3.6-3.2 9.2v40.8q0.1 5.6 3.2 9.4 3.2 3.8 8.1 6 2.3 0.9 4.9 1.4 2.6 0.5 5.3 0.5 5 0 9.7-1.9 4.7-2.2 7.9-6 3.2-3.8 3.3-9.5z"/><path fill-rule="evenodd" class="b" d="m429.5 861.3v74.8q-10.6 4-23 6.2-12.3 2.1-24.4 1.6-10.3-0.4-19.1-3.5-1.5-0.6-3-1.3-5.9-2.4-10.3-6.5-2.2-2.1-4.1-4.6-2.7-3.8-4.5-8.2v21.3h-113.7l-7-17.2 88.4-116.7h-83.7v-25.6h111.2l8 17-88.7 117.3h84.1q-1.8-6.2-1.9-13.8 0.3-13.8 7-22.2 6.6-8.6 17-12.3 0.6-0.2 1.2-0.4 9.8-3.4 20.4-2.9 11.5 0.6 21.4 4.8v-7.1q-1.7-8-7.4-12.4-5.6-4.4-13.3-5.1-7.7-0.8-15.4 1.7-3 1-5.7 2.6-4 2.3-7.4 5.6l-14.4-13.1q9.6-10.4 20.4-14.6 0.6-0.3 1.4-0.5 10.1-3.6 20.5-3.4 11.8 0 22 4 10.5 4.2 17.2 12.9 6.6 8.4 6.8 21.6zm-24.7 29.1q-4.8-2.4-11.8-3.4-6.9-1.1-13.7-0.3-7 0.7-11.8 4.5-3.1 2.3-4.5 6.5-0.6 1.9-0.9 4.4-0.2 4.7 0.9 8.4 0.9 3 2.7 5.1 4.1 4.7 10.7 6.3 6.7 1.6 14.2 1 7.5-0.6 14.2-2.6z"/></svg>