<svg version="1.2" xmlns="http://www.w3.org/2000/svg" viewBox="0 0 1816 720" width="1816" height="720"><style>.a{fill:#ba1b02}.b{fill:#fff}.c{fill:#b4b4b4}.d{fill:#dedede}</style><path class="a" d="m0 0h1816v720h-1816z"/><path class="b" d="m376.4 307.8l-7.3 3.5-7.3-3.5-102.2-50.5 48.4-18.5 104.9 50.9zm102.3-50.5l-36.6 17.8-106-47.2 32.9-12.7z"/><path class="b" d="m373 182.6l134.1 51.8-18.8 15.1-119.2-46.2-119.2 46.2-18.9-15.1 134.2-51.8zm118.4 71.4l22.2-8.6-16.7 137.5-3.3 6.1-117.7 105.8-3.8-24.3 104.8-94.2zm-246.8 135.1l-3.4-6.2-16.7-137.4 22.2 8.5 14.7 122.5 104.7 94.1-3.7 24.3z"/><path class="c" d="m445 279.4l33.8-20.6-13.3 110.7-95.7 86.1 5.3-133.4 42-25.8-2.8 65.4 26.1-18.4z"/><path class="d" d="m363.1 322.2l5.3 133.3-95.6-86-13.5-110.7z"/><path class="b" d="m1454.1 296q11.5 5.1 18.4 15 6.9 9.9 7.1 25.4v86.8h-27.5v-86.6q-0.6-8.2-5.9-13-5.2-4.9-13-6.6-7.5-1.8-15.2-0.8-7.7 1-13.2 4.2v102.8h-27.7v-123.9q4.3-0.6 7.2-1.5 4.4-1.4 13.5-4.4 8.7-2.9 22.6-3.4 0.9-0.2 1.8 0 3.4-0.2 7 0.1 13.5 0.9 24.9 5.9z"/><path class="b" d="m1372.6 299.6l-43.6 123.6h-29.4l-43.6-123.6q14.4 0 26.6-7.7l26.4 76.4 4.3 26.1h2l4.3-26.1 26.4-76.4q12.2 7.7 26.6 7.7z"/><path class="b" d="m920 350.8q9.8 3.9 16.1 11.9 6.3 8.1 6.6 22-0.3 15.3-8.1 25.1-8 9.6-20.3 13.5-12.4 4-26.1 2.2-13.7-1.9-25.4-9.7-11.5-7.6-18.1-21.3l20.8-13.4q5.2 8.8 13.2 13.4 8.1 4.9 16.2 5.4 8.2 0.6 14.1-3.1 5.7-3.5 6.2-11.6-0.2-4.9-3.3-7.5-3.2-2.9-7.9-4.6-4.8-1.4-9.5-2.4-7-1.3-15.1-3.7-7.8-2.4-15.1-6.8-7.2-4.3-11.8-11.7-3.9-6.3-4.4-15.7 0-0.2 0-0.5-0.1-1-0.1-2.2 0.2-14.5 7.7-23.3 7.4-8.9 18.5-12.9 11.2-3.9 22.7-3.8 10.7 0 21.8 4.5 11.2 4.7 21.1 14.2l-16.8 18.3q-5.5-5.5-13.3-8.2-7.7-3-15.3-3.1-7.5 0-12.8 2.9-5.2 3-6.1 9.2-0.3 5.7 3.3 9.2 3.8 3.6 9.4 5.3 5.5 1.9 11.1 2.7 10.8 1.5 20.7 5.7z"/><path class="b" d="m978.9 248.5q4.9 4.9 5 12.8-0.1 7.5-5 12.4-4.8 5.1-12.8 5.2-7.4-0.1-12.3-5.2-4.9-4.9-5-12.4 0.1-7.9 5-12.8 4.9-4.8 12.3-5.1 8 0.3 12.8 5.1z"/><path class="b" d="m1050.1 398.1c0-0.4 0-154.4 0-154.4h27.9v101.1l13-14.4 0.2-0.3 33.9-38.1h34.9l-54.8 60.5 54.5 70.7h-32.7l-41.3-53.8-7.7 7.9v45.9l-26.8 1c-0.7 0-0.8 0-1.5 0-0.8 0-1.7-0.1-1.7-0.1l-1.5-0.1q-26.7-1.9-37.8-12-13-11.9-13.1-32.9v-135.4h27.8v135.4q-0.1 8.2 5.5 13.5c3 2.9 10.8 4.8 21.2 5.5z"/><path class="b" d="m980.7 423.2h-27.9v-131.6h27.9z"/><path class="b" d="m797 283.7h-27.4l18-29.6h34.4z"/><path fill-rule="evenodd" class="b" d="m1591.4 333.4v84.2q-11.9 4.5-25.8 7-13.8 2.4-27.5 1.8-13.6-0.5-24.9-5.4-11.3-4.8-17.9-14.9-6.8-10.2-7.1-26.8 0.4-15.4 7.9-24.9 7.5-9.7 19.2-13.9 11.6-4.3 24.3-3.6 12.9 0.6 24.1 5.3v-8q-1.9-9-8.4-14-6.3-4.9-15-5.7-8.6-0.8-17.3 1.9-8.5 3-14.7 9.3l-16.2-14.8q10.7-11.7 22.9-16.4 12-4.7 24.7-4.4 13.2 0 24.8 4.5 11.7 4.7 19.3 14.5 7.4 9.5 7.6 24.3zm-27.7 32.7q-5.5-2.6-13.3-3.8-7.8-1.2-15.5-0.3-7.8 0.8-13.2 5-5.3 4.1-6.1 12.3-0.3 9.9 4.1 15.2 4.6 5.4 12 7.1 7.5 1.8 16 1.2 8.4-0.8 16-2.9z"/><path fill-rule="evenodd" class="b" d="m1256.5 335.1v45.9q-0.3 15.3-7.8 25.3-7.3 10.1-19.1 15.1-11.7 5-24.5 5.1-3 0-5.9-0.2-10-1.1-19.2-4.9-5.8-2.5-10.6-6.2-4.8-3.8-8.6-8.9-7.5-10-7.8-25.3v-45.9q0.3-15.1 7.8-25.1 3-4.1 6.8-7.2 5.5-5 12.4-8 9.2-3.8 19.2-4.7 2.9-0.4 5.9-0.4 12.8 0.1 24.5 5.1 11.8 5.2 19.1 15.2 3.9 5.1 5.8 11.3 1.9 6.3 2 13.8zm-27.9 0q-0.1-6.2-3.7-10.3-3.5-4-8.9-5.9-5.3-2.1-10.9-2.1-3 0-5.9 0.5-2.9 0.5-5.6 1.6-5.5 1.9-9.1 5.9-3.5 4.1-3.6 10.3v45.9q0.1 6.3 3.6 10.6 3.6 4.3 9.1 6.8 2.7 1 5.6 1.6 2.9 0.5 5.9 0.5 5.6 0 10.9-2.1 5.4-2.5 8.9-6.8 3.6-4.3 3.7-10.6z"/><path fill-rule="evenodd" class="b" d="m837.3 333.4v84.2q-11.9 4.5-25.8 7-13.9 2.4-27.6 1.8-11.5-0.4-21.4-4-1.8-0.6-3.4-1.4-6.6-2.7-11.5-7.3-2.6-2.4-4.7-5.2-3.1-4.3-5.1-9.3v24h-127.9l-7.9-19.3 99.5-131.3h-94.2v-28.8h125.2l9 19-99.9 132.1h94.7q-2-6.9-2.2-15.6 0.4-15.4 7.9-24.9 7.5-9.7 19.1-13.9 0.7-0.2 1.4-0.5 11.1-3.8 23-3.1 12.9 0.6 24.1 5.3v-8q-1.9-9-8.4-13.9-6.3-5-15-5.8-8.6-0.8-17.3 1.9-3.3 1.2-6.4 3-4.5 2.5-8.3 6.3l-16.3-14.8q10.8-11.7 23-16.4 0.7-0.4 1.6-0.6 11.3-4.1 23.1-3.8 13.2 0 24.7 4.5 11.8 4.7 19.4 14.5 7.4 9.5 7.6 24.3zm-27.7 32.8q-5.5-2.7-13.3-3.8-7.8-1.3-15.5-0.4-7.9 0.9-13.2 5-3.6 2.7-5.1 7.4-0.7 2.1-1 4.9-0.2 5.4 1 9.5 1 3.3 3.1 5.8 4.5 5.3 12 7.1 7.5 1.7 16 1.1 8.4-0.8 16-2.9z"/><path fill-rule="evenodd" class="b" d="m1356.7 485.7c4.9-1.7 10-2.6 15.2-2.6 7.3 0 14.6 4.1 14.6 12.6v15.2c0 8.3-7.4 12.8-14.9 12.8-3.7 0-7.3-0.9-10.6-2.4v16.1h-4.3zm4.3 31.8c3.3 1.4 7.1 2.2 10.7 2.2 5.3-0.1 10.5-2.8 10.5-8.4v-16c0-5.6-5.1-8.2-10.3-8.2-3.7 0-7.5 0.1-10.9 1.3zm-18.6 4.4c-3.5 1-7.3 1.8-10.8 1.8-7.3 0-14.6-4.3-14.6-12.7v-27.4h4.3v27.7c0 5.4 5 8.3 10.3 8.3 4.2 0 8.5-1.4 10.8-2.4v-33.6h4.2v37zm-63.9-26.2c0-8.5 7.5-12.7 15-12.8 7.4 0.1 14.8 4.3 14.8 12.8v15.2c0 8.5-7.4 12.7-14.8 12.8-7.5-0.1-15-4.3-15-12.8zm4.3-0.2v15.5c0 6 5.5 8.5 10.7 8.5 5 0 10.6-2.5 10.6-8.5v-15.5c0-6-5.6-8.5-10.6-8.5-5.2 0-10.7 2.5-10.7 8.5zm-8.3-12.5v4.3c-1.9-0.4-3.6-0.3-5.5 0.1-3.9 0.9-7.3 3.5-7.3 8.1v27.4h-4.2v-27.4c0-9.3 8.6-12.6 14.1-12.6 0.9 0 1.9 0.1 2.9 0.1zm-65.5 1.8c0-10.8 10.1-16.3 20.1-16.3 7.6 0 15.1 3.2 18.2 9.7l-4 2c-2.3-4.8-8.4-7.2-14.4-7.2-7.7 0-15.4 3.9-15.4 11.8v22.4c0 8 7.8 12 15.7 12 7.8 0 15.6-4 15.6-12v-6.7h-16.5v-4.5h20.9v11.1c0 11-10 16.5-20 16.5-10.1 0-20.2-5.5-20.2-16.5zm-30 10.6c0-5.6-5.3-8.4-10.8-8.4-3.9 0-7.9 1.4-9.9 4l-2.9-2.8c3.2-3.5 8.3-5.3 13.3-5.3 7.5 0 14.6 4.3 14.6 12.5v25.8c-5.2 1.7-10.6 2.5-16.1 2.5-7.6-0.1-13.7-4-13.7-12.1 0.1-8.9 7.6-12.3 15.1-12.3 3.6 0 7.3 0.7 10.4 2zm0 9.4c-2.5-1-6.5-1.9-10.3-1.9-5.7 0-10.9 2.1-10.9 8.7 0 5.9 4.1 8.2 9.7 8.3 3.8 0.1 7.8-0.2 11.5-1.2zm-29.3 18.7c-9.3 1.6-13.9-4-13.9-12.4v-36.3h3.7l0.5 8.9h8.5v3.8h-8.5v23.6c0 5.4 2.3 9.9 9.7 8.7zm-47.7-12.4c0 5.8 5.3 8.4 10.6 8.4 4.2 0 8.4-1.6 10-5.2l3.8 1.7c-2.3 5.1-8.1 7.6-13.8 7.6-7.4 0-14.9-4.1-14.9-12.7v-15.3c0-8.6 7.5-12.7 14.9-12.7 7.4 0 14.9 4.1 14.9 12.7v9.5h-25.5zm21.2-15.7c0-5.7-5.3-8.3-10.6-8.3-5.3 0-10.6 2.6-10.6 8.3v6.3h21.2zm-54.3 8.9l20.6-20.6h5.3l-17.5 17.7 17.4 21.5h-5.2l-15.2-18.4-5.4 5.4v13h-4.3v-53.6h4.3zm-15.7-12.5c-1.7-3.2-5.8-4.7-9.8-4.7-5.3 0-10.6 2.5-10.6 8.3v15.9c0 5.7 5.3 8.3 10.6 8.3 4.5 0 9-1.9 10.3-6l3.8 1.7c-2 5.7-8.1 8.4-14.1 8.4-7.4 0-14.9-4.2-14.9-12.7v-15.3c0-8.6 7.5-12.7 14.9-12.7 5.4 0 10.8 2.2 13.4 6.7zm-37.6 3.7c0-5.7-5.4-8.5-10.8-8.5-4 0-7.9 1.4-9.9 4l-2.9-2.7c3.2-3.5 8.3-5.3 13.2-5.3 7.5 0 14.6 4.2 14.6 12.4v25.8c-5.1 1.7-10.6 2.6-16 2.5-7.7-0.1-13.7-3.9-13.7-12.1 0.1-8.9 7.6-12.3 15-12.3 3.7 0 7.4 0.8 10.5 2.1zm0 9.3c-2.6-0.9-6.5-1.9-10.3-1.9-5.8 0-10.9 2.1-11 8.7 0 6 4.2 8.2 9.7 8.3 3.9 0.1 7.9-0.2 11.6-1.1zm-68.1 18.1v-53.6h20.2c23.7 0 23.7 33.5 0.1 33.5h-15.8v20.1zm20.2-24.6c18 0 17.6-24.8 0-24.6h-15.7v24.6zm-42.6-25.4c-6.2-0.7-9 2.1-9 8.8v3.8h8.5v3.7h-8.5v33.7h-4.2v-41.2c0-9.3 5.4-13.6 13.2-12.7zm-52.1 22.7c0-8.5 7.5-12.7 14.9-12.8 7.4 0.1 14.9 4.3 14.9 12.8v15.2c0 8.5-7.5 12.7-14.9 12.8-7.4-0.1-14.9-4.3-14.9-12.8zm4.3-0.2v15.5c0 6 5.5 8.5 10.6 8.5 5.1 0 10.6-2.5 10.6-8.5v-15.5c0-6-5.5-8.5-10.6-8.5-5.1 0-10.6 2.5-10.6 8.5zm-24.3-12.5v4.3c-1.9-0.4-3.5-0.3-5.4 0.1-4 0.9-7.3 3.5-7.3 8.1v27.4h-4.2v-27.4c0-9.3 8.6-12.6 14-12.6 1 0 1.9 0.1 2.9 0.1zm-50.7 28.1c0 5.8 5.2 8.4 10.6 8.4 4.2 0 8.4-1.6 10-5.2l3.8 1.8c-2.4 5-8.1 7.5-13.8 7.5-7.4 0-14.9-4.1-14.9-12.7v-15.3c0-8.5 7.5-12.7 14.9-12.7 7.3 0 14.8 4.2 14.8 12.7v9.6h-25.4zm21.2-15.8c0-5.7-5.3-8.3-10.6-8.3-5.4 0-10.7 2.6-10.6 8.3v6.3h21.2zm-59-10.1c3.3-1.5 7-2.3 10.7-2.3 7.5-0.1 14.9 4.4 14.9 12.7v15.3c0 8.8-7.3 12.6-14.7 12.7-5.1 0-10.3-1-15.1-2.6v-51.9h4.2zm0 3.9v28.9c3.5 1.2 7.3 1.4 10.9 1.4 5.2 0 10.5-2.8 10.4-8.4v-15.7c0.1-5.6-5.2-8.3-10.5-8.4-3.7 0-7.5 0.8-10.8 2.2zm-65.6 33.7v-36.6c3.4-1.9 8.2-3.4 13-3.4 4.8 0 9.5 1.5 12.4 5.3 2.9-3.7 7.4-5.3 11.4-5.3 7.9 0 14.7 4.4 14.7 13.1v26.9h-4.3v-26.9c0-6.5-4.9-9-10.2-9-4.2 0-9.4 2.4-9.4 7.1v28.8h-4.2v-28.5c0-5.1-5.6-7.4-11-7.4-3.2 0-6.3 0.8-8.1 2.2v33.7zm-33.9-11.8c0 5.8 5.3 8.5 10.6 8.5 4.2 0 8.4-1.7 10-5.2l3.8 1.7c-2.3 5.1-8.1 7.6-13.8 7.6-7.4 0-14.9-4.2-14.9-12.7v-15.3c0-8.6 7.5-12.8 14.9-12.8 7.4 0 14.9 4.2 14.9 12.8v9.5h-25.5zm21.2-15.7c0-5.7-5.3-8.4-10.6-8.4-5.3 0-10.7 2.7-10.6 8.4v6.2h21.2zm-79.8-19.8v47.4h-4.4v-53.6h6.5l17.9 40.5 17.9-40.5h6.5v53.6h-4.5v-47.4l-17.8 40.1h-4.2z"/></svg>